<?xml version="1.0" encoding="utf-8"?>
<!-- Generator: Adobe Illustrator 21.1.0, SVG Export Plug-In . SVG Version: 6.00 Build 0)  -->
<svg version="1.1" xmlns="http://www.w3.org/2000/svg" xmlns:xlink="http://www.w3.org/1999/xlink" x="0px" y="0px"
	 viewBox="0 0 1280.7 224.1" style="enable-background:new 0 0 1280.7 224.1;" xml:space="preserve">
<style type="text/css">
	.st0{fill:#FFFFFF;}
	.st1{fill:#87888A;}
	.st2{fill:#070E0C;}
	.st3{fill:#FFDD00;}
	.st4{clip-path:url(#SVGID_2_);fill:url(#SVGID_3_);}
	.st5{clip-path:url(#SVGID_5_);fill:url(#SVGID_6_);}
	.st6{clip-path:url(#SVGID_8_);fill:url(#SVGID_9_);}
	.st7{clip-path:url(#SVGID_11_);fill:url(#SVGID_12_);}
	.st8{clip-path:url(#SVGID_14_);fill:url(#SVGID_15_);}
	.st9{clip-path:url(#SVGID_17_);fill:url(#SVGID_18_);}
	.st10{clip-path:url(#SVGID_20_);fill:url(#SVGID_21_);}
	.st11{fill:#E2001A;}
	.st12{clip-path:url(#SVGID_23_);fill:url(#SVGID_24_);}
	.st13{fill:none;stroke:#000000;stroke-width:0.216;stroke-miterlimit:22.9256;}
	.st14{fill:#C6C7C8;}
	.st15{clip-path:url(#SVGID_26_);fill:url(#SVGID_27_);}
	.st16{clip-path:url(#SVGID_29_);fill:url(#SVGID_30_);}
	.st17{clip-path:url(#SVGID_32_);fill:url(#SVGID_33_);}
	.st18{clip-path:url(#SVGID_35_);fill:url(#SVGID_36_);}
	.st19{fill:#B7B9BA;}
	.st20{clip-path:url(#SVGID_38_);fill:url(#SVGID_39_);}
	.st21{fill:url(#SVGID_40_);}
	.st22{clip-path:url(#SVGID_42_);fill:url(#SVGID_43_);}
	.st23{clip-path:url(#SVGID_45_);fill:url(#SVGID_46_);}
	.st24{clip-path:url(#SVGID_48_);fill:url(#SVGID_49_);}
	.st25{fill:url(#SVGID_50_);}
	.st26{clip-path:url(#SVGID_52_);fill:url(#SVGID_53_);}
	.st27{clip-path:url(#SVGID_55_);fill:url(#SVGID_56_);}
	.st28{clip-path:url(#SVGID_58_);fill:url(#SVGID_59_);}
	.st29{clip-path:url(#SVGID_61_);fill:url(#SVGID_62_);}
	.st30{clip-path:url(#SVGID_64_);fill:url(#SVGID_65_);}
	.st31{clip-path:url(#SVGID_67_);fill:url(#SVGID_68_);}
</style>
<g id="Ebene_2">
	<rect x="0" y="0" class="st0" width="1280.7" height="224.1"/>
</g>
<g id="Ebene_1">
	<rect x="574.8" y="153.5" class="st1" width="197.3" height="1.7"/>
	<path class="st2" d="M784.2,153.4l36.1-1l4.1-0.3l29.4,2.4c3.5-3.1,15.5-14.1,19.7-15.3l-0.8-3.1c-4.6,1.1-8.2,2.5-13.7,3.6
		c-4.3,0.9-11.2,1.2-16,1.2l-7.4,0.1l-20.8-0.9l60.1-99l-1.4-2c-14.6,1.2-28,3.1-44.6,3.1h-1c-8.2,0-17.3-0.9-22.6-3.7l-14.6,13.8
		c0.7,1.5-0.2,2.4,2.2,2c1.5-0.3,2.3-0.4,3.8-0.6c2.7-0.4,5.3-0.7,8.5-0.7h38.2c-0.2,2.1-26.6,44.3-29.9,49.4c-2.6,4-5.1,8-7.5,12.1
		c-2.5,4.2-5.3,8-7.7,12.2c-4.7,8.4-10.8,16.4-15.1,24.7L784.2,153.4z"/>
	<path class="st2" d="M934.5,136.5c0-1.5-0.8-3.5-1.7-4.2c-4.9,3.4-9.9,10.4-18.6,10.4h-0.7c-6.5,0-11.5-2.7-14.4-6.3
		c-2.1-2.5-6.8-10.4-6.8-14.5c0-1.4,18.5-10.7,21.1-12c4.1-2.1,18.8-10.8,21.9-11.5c-0.1-5.6-7.3-12.6-10.8-15.2
		c-3.1-2.4-12.7-8.7-17.6-8.7c-8,0-20.7,7.9-24.9,12.2c-4.8,4.9-9.5,18.5-9.5,28.3v5.5c0,7.8,4.3,17.4,7.7,21.9
		c4.9,6.3,9.2,9.1,17.1,12.3c9.3,3.8,15.5-0.8,21.5-4.8C920.6,148.5,934.5,138,934.5,136.5 M890.8,109.1l0.1-8c0-30.7,22.4-8,24-1
		l-23.6,13.5L890.8,109.1z"/>
	<path class="st2" d="M944.2,85.1v8.4l0.2,6.9l0.1,12.8l-0.1,1.7l-0.6,40.2h2v0.4l22.3-3.2V147l-5.7,0.8l0.7-30.5l0.1-37.8l-0.4-3.1
		c-3.4,0-10.6,2.3-14.9,2.8c-2.4,0.3-5.3,0.9-7.8,1c-4,0.2-4.4,0.1-4.4,4.5v1.1L944.2,85.1z"/>
	<path class="st2" d="M963.2,62c0.6-2.8,4.7-9.8,4.7-12.5c0-0.8-0.9-1.7-1.3-1.9l-16.2,0.8H948l-4.4,13.5h19.6L963.2,62L963.2,62z"
		/>
	<path class="st2" d="M983.1,86.9l0.1,26.3l-0.8,26.7c-0.2,7.4,7.7,13.3,12.6,16.1l16.8-13v-6.2c-1.7,0.5-3.6,3.1-6.4,3.1
		c-2.4,0-4.7-2.4-4.7-5.2l-0.2-8.7l1.2-40.2h1.7l6.1-0.3c0.6-1.2,4.1-8.7,2-8.7l-1.7,0.1l-2.7-0.1h-5.4l0.1-19.1l-0.5-4.8L983.1,58
		v18.7l-2.4-0.1l-3.8,0.4l-3,8.3C975.4,85.7,983.1,85.4,983.1,86.9"/>
	<path class="st2" d="M1021,82.8l3.1,0.3l-0.4,24.6v10c0,10.6,2.3,20.8,6.6,27.2c3.7,5.7,13.4,10.9,22.6,10.9l12.6-12.3l0.4,0.1
		l0.5,10.5l6.4-0.4h4.4c5.7,0,6.1,2.5,6.1-3.8c0-3.6,0-7.2,0-10.7c0-7.2,0-14.3,0-21.5c0-14.5,0.3-28.5,0.3-42.6l-18.3,2v50.2
		c0,15.8-21.1,18-23.3-1.7c-0.9-7.6-0.7-16.1-0.7-24.6c0-4.3,0-8.5,0-12.8c0-2,0.2-11.4-1.4-11.4h-22c-1.2,0-2.3,4.4-2.4,5.9
		L1021,82.8L1021,82.8z"/>
	<path class="st2" d="M1099.4,83.5c2,0,1.4,10,1.3,12.5c0,4.1,0.3,9.2,0.3,13.9l0.2,4.2L1100,155c3.6,0,6.6-0.7,10.1-1.1
		c0.7-0.1,3.4-0.3,4.9-0.6c3.5-0.5,3,0.8,3-3.5c0-8.5,0.7-16.7,0.7-25.3c0-4.9,0.6-19.8,1.6-23.3c2-6.7,4.8-12.4,13.2-12.4h0.7
		c9.4,0,14.5,7.8,14.5,17.7v0.7c0,8.2-1.5,17.1-2.6,24.3c-0.9,6.2-3.5,18.1-3.5,23.2l24.7-2.7l0.3,0.3l0.8-5.3l-7.8,0.7
		c0-5.2,2.2-17.2,3.1-23.1c1.1-7.1,2.6-15.7,2.6-24v-3.8c0-5.9-2.5-12.3-5.3-15.3c-2.5-2.6-9.4-6.2-14.8-5.3
		c-6.9,1.2-10.3,1.9-15.3,5.1c-2.6,1.7-3.6,2.5-6,4.3c-2,1.6-3.5,3.8-5.3,5l-0.6-13.9l-25.3,2.5v-0.4l-0.7,4.8L1099.4,83.5
		L1099.4,83.5L1099.4,83.5z"/>
	<path class="st2" d="M1189.3,164.2c7.3,0,16.2-6.2,21.6-6.2h2c9.1,0,10.3,20.4-1.4,20.4c-3,0-7.7-2.3-9.6-3.7
		c-1.1-0.7-6.9-6.4-7-6.4c-0.8,0-18,8.5-19.3,9.4c3,4.7,16,9.4,24.3,9.4h2c15,0,36.2-11.7,36.2-26v-1c0-9.1-6.2-16.7-14.9-15.6
		c-7,0.9-15.8,9-21.6,9h-2c-2.3,0-5.1-1.9-5.1-4.2v-1c0-6,8.6-5.9,13.8-7c5.4-1.1,11-2.5,15.1-5.3c7.3-5,14.4-14.5,14.4-26.8
		c0-8.6-3.7-17-7.1-22.2c1.1-0.7,8.8-6.8,8.8-7.6V78l-35.5-2.1v-0.4c-5.1,2.8-13.1,9.2-18.1,13c-6.4,4.9-10.7,9.2-10.7,20.6v5.9
		c0,6.5,3.7,12.9,6.6,16.8c3.9,5.4,14.1,8.1,14.4,8.5c-10,0-19.6,3.8-19.6,13.9c0,4.9,5.7,10,10.5,10H1189.3L1189.3,164.2z
		 M1202.1,89.4c14.9,0,20,23.3,16,38.2c-1.4,5.1-1.1,7.2-7.3,6c-3.8-0.8-7-2.4-9.4-4.6c-4.4-4-7.3-12.7-7.3-21.2v-5.9
		c0-3.3,0.5-5.9,1-8.6c0.7-3.3,1.5-3.8,5.4-3.8L1202.1,89.4L1202.1,89.4L1202.1,89.4z"/>
	<path class="st2" d="M556.3,131.9c-3.5,0.5-11.8,13.8-25.6,9.4c-4.5-1.4-8.1-4.4-10.6-7.9c-1.9-2.6-5.1-8.9-5.2-13l43.4-22.8
		c-1.6-7.2-9-13.9-14.5-17.5c-8.4-5.3-12.6-7.8-23.4-3.8c-7.5,2.8-14.3,7.1-18.6,13.5c-3.4,5.1-6.9,16.8-6.9,25.4v2.4
		c0,18.4,11.2,30.9,24.5,35.8c10.7,3.9,14.7,0.1,21.9-4.5c3.9-2.5,14.5-10.1,16.4-13.7L556.3,131.9z M513.5,101.9
		c0-8.1,1.4-20.1,10.4-16.4c5.3,2.2,11.5,9.1,14,14l-24,13.7l-0.5-5.4L513.5,101.9z"/>
	<path class="st2" d="M479,153.3c2.9-0.4,5.5-0.8,8.1-1.4c3.2-0.8,3.8-1.9,4.1-5.6l-9.5,1.3l-1-0.2c2.2-9.8,3.4-20.2,5.2-30.5
		c2.3-13.2,2.7-19.9-3.4-29.2c-3-4.5-15.8-13.6-23-10.6c-4.3,1.7-7.4,4.5-10.8,7c-3.3,2.4-6.8,7.6-8.8,9l0.7-51.7
		c-1.6-3.6-7.3-0.8-11.9-0.3c-5,0.5-9,1-14.6,1l-2.5,4.7l3.9,0.1c7.4,0,6.1,4,6.1,11.4c0,6.4,0.3,9.9,0.3,16.2c0,11.5,0,23,0,34.4
		c0,7.6,1,26.5-0.1,33.7c-0.4,2.4-0.3,5.4-0.3,8.3c0,5.3-0.8,4.6,3.4,3.8c4.3-0.9,10.9-1.1,15-2v-0.3v-41.3v-0.3
		c0-9.2,3.5-18.9,12.2-18.9h1.7c8.8,0,15.6,9.4,15.6,18.6v2.8c0,5.4-2,15-3,20c-0.8,4.1-3.4,16.2-3.4,19.6
		C463,155.9,476.1,153.7,479,153.3"/>
	<path class="st2" d="M414.2,133.9c-2.4,1.6-11.6,8.3-14.6,8.3c-10.5,0-19.3-17-19.3-28.6v-7.9c0-5.3,0.8-16.7,2.7-19.6
		c1.5,0.7,4.3,1.2,6.1,2.1c1.8,0.8,3.3,1.8,5.1,2.8c1.4,0.7,9.3,6.6,9.5,6.6c0.9,0,12.6-8.4,13.2-9.3c-3.3-5-18.1-12.7-27.1-12.7
		c-4.1,0-15.9,9.7-19.3,12.1c-4.5,3.3-4.8,3.1-6.1,9.7c-0.8,3.9-1.8,9.6-1.8,14v8.3c0,10.6,2.8,18.8,7.3,24.9
		c3.7,5,12.8,10.9,21.2,10.9h1.7c1.2,0,22.1-15.4,23.1-16.9L414.2,133.9z"/>
	<path class="st2" d="M337.2,74.4c-8.3,0-14.9,6.4-19.2,10.8c-3.9,4-3.5,3.8-4.6,10.5c-0.8,4.7-0.5,9.6,0.8,13.3
		c5.2,15.1,34.6,12.8,34.6,25.1c0,5.7-9.3,9.9-15.2,7.9c-5.5-1.9-10.6-6.5-13.6-11c-1.6,1.1-11.7,11.5-11.9,13.1
		c0.1,0,5.7,4.5,6.7,5.2c2.2,1.5,5.3,3.2,7.9,4c7.9,2.4,12.3,2.4,18.6-1.3c7.2-4.2,19-17.4,19-28.6V122c0-21.8-36.6-17.1-36.6-29.6
		v-2.1c0-3,1.5-4.1,4.4-4.1c11,0,12.9,3.6,19.7,7.2l12-10.9C357.3,79.1,343.4,74.4,337.2,74.4"/>
	<path class="st2" d="M284.3,49l-0.3-0.3l-4.7,13.5l19.9,0.1c0.6-2.5,4.7-9.6,4.7-12.4c0-0.3-0.8-1.5-1-1.7L284.3,49z"/>
	<path class="st2" d="M292.4,154c3.5-0.4,9.1-1.7,11.8-1.8c0.2-0.8,0.3-0.8,0.3-1.7V147l-6.1,0.5l0.8-30.7l-0.1-40
		c-3,0-11.6,2.2-15.5,2.8c-2.8,0.5-4.9,0.7-8.2,0.9c-3.4,0.2-3.7,1.7-3.7,5.5c0.5,0.7,1.4,1.1,2.4,1l2.5-0.1l2.9,0.2h0.6h0.3
		c-0.5,4.6,0.1,8.4,0.1,12.4v34.1l-0.6,21C284.3,155,288.1,154.5,292.4,154"/>
	<path class="st2" d="M220.5,155c5.4,0,10.2-2.6,13.9-4.5c4.7-2.4,6.9-5.5,10.5-7.9l0.2,7.2l0.1,5.2l25.5-1.9l1-6.1l-8.5,0.9V120
		l0.5-26.9l-0.1-1l0.1-2.8l-0.1-6.2l0.3-9V37.9l-29.8,2.6l-2.6,4.8l2.5,0.1c12.8,0,11.9,2.6,11.9,15.2c0,9.1,0,18.1,0,27.2
		c-1.9-2.2-2.2-4.4-5-7.3c-1.9-1.9-4.7-3.7-8.2-3.7H230c-6.8,0-21.8,7.5-25.4,11.1c-6,6-8.9,15.6-8.9,27.5v1
		c0,15.6,8.5,38.6,22.4,38.6H220.5L220.5,155z M230.7,83.3c11.1,0,13.6,18.9,13.6,31v12.8c0,7.2-5,15.5-11.9,15.5h-0.3
		c-10.9,0-15.6-16-15.6-27.9v-3.1C216.4,99.4,219.2,83.3,230.7,83.3z"/>
	<path class="st2" d="M194.4,147.6l-3.7-0.2H187v-12.7l0.8-27.9l-0.1-8.3c0-13.1-9.3-22.4-22-22.4h-5.8c-5.1,0-11.8,2.3-15,4.4
		c-5.2,3.4-6.1,5-8.7,10.8l9.4-1.7l1.1,0.3l6.4,0.4c0.7-3.1,3.5-7.6,7.1-7.6c8.1,0,8.5,13.6,8.5,22.4c0,1.3-4.2-1.3-5.7-1.8
		c-0.9-0.3-6.6-1.1-7.8-0.9c-5.8,0.8-8.7,2.1-12.8,4.9c-6.6,4.5-12.3,12.3-12.3,23.3v2.4c0,12.2,9.3,23.1,21,23.1
		c3.7,0,8.8-2.2,11.1-3.9c2.7-2,6.1-6.1,7.6-7.1v10.7c3,0,7.6-1.5,11.5-1.7c4.1-0.2,7.4-0.7,12.2-0.7l0.6-0.8L194.4,147.6z
		 M157.7,110.2c3.4,0,11.5,4.2,11.5,6.9v17.2c0,3.4-4.9,9.7-6.8,11.4c-1.2-0.6-4.4-0.5-6.3-1.5c-1.2-0.6-3.8-2.4-4.6-3.3
		c-2-2.3-4.6-6.9-4.7-11.1c-0.1-6.1-0.6-8.5,2-13.1C150.2,114.5,154.6,110.2,157.7,110.2z"/>
	<path class="st2" d="M101.4,90.9c8.6-2,18.4-13.1,20.5-21.9c3.6-15.1-0.7-21.9-10.8-28.2c-3.1-2-12-4.2-17.5-3.6
		c-6.1,0.7-13.6,0.5-19.5,1.6c-4.2,0.8-14.5,1.4-18.8,1.3c-3-0.1-6.4,0.2-9.9,0.2c-4.4,0-4.4,0.8-4.4,5.9c0,0.5,0.5,0.7,1,0.7h10.2
		L53,69.3l-0.1,19.3c0,11.6-0.2,23.1-1,34.1c-0.4,5.1-0.6,12-0.7,16.9c0,2.5,0.7,7-1.3,7.6c-1.8,0.6-5.5,1-7.2,0.7l-1.2,5.5l3.9,0.5
		l3.7-0.1l4.7-0.1l3.7,0.1l6.8-0.1l1.4,0.1c17,0,27.8-0.7,40-6.9c8.6-4.4,20.4-14.9,20.4-27.6v-2.4c0-15.2-10.8-24-24.8-25.1
		L101.4,90.9C101.3,90.9,101.4,90.9,101.4,90.9z M79,98.8c0,5,26.1,3,26.1,25.1c0,14.5-15.8,22.7-28.8,22.7h-3.7v-28.9
		c0-10.3,0.3-20.2,0.7-30c0.4-9.6,1.1-20.2,1-29.3c0-2.9,0.2-5.2,0.3-7.6c0.3-4.7-1.5-4.4,2.7-4.9c4.4-0.5,8.7,0.5,12.1,2.2
		c6,3,12,9.3,12,18.1v1.4c0,6.3-4.9,15.1-8.1,18.3c-2,2-4.6,4.5-7.2,5.8c-2.2,1.1-7.1,3-7.1,5.9C79,97.6,79,98.8,79,98.8z"/>
	<path d="M780.2,95.4c-4.2-2.4-8.1-6.5-11.2-10.2c-1.2-1.4-4.2-5.5-4.4-6.2c3.2,1.2,4.5,1.3,7.8,0.2c2.5,0.5,4.2,0.6,6.8-1
		c0.9,0.4,8.5,1.7,9.8-1.7c-3.2,0-4.9-1.6-7.3-3.3c-4-2.6-7.7-6.3-10.7-9.8c-4.4-5.1-10.5-10.2-18.7-10.2c-4,0-8.5,3.3-8.9,6.4
		s0,4,0.6,5.4l-1.5,0.4c-1.4-4.2,0.2-9.6,1.9-14.6c-2.1,0-2.3,2.3-4.4,2.3c0-1.2,0.2-5-1.1-5.1l-3.4,5.8c-1.8-0.7-3.6-1.3-5.5-1.3
		c-1.8,0-3.3,0.6-4.5,1.2c-2.2,1.2-3.8,4-3.8,6.4c0,0.5,0.1,0.6,0.6,0.6s1.5-1.2,2.6-1.2c1.4,0,2.4,0.5,3.8,0.8v0.8
		c-1.2-0.1-2.2-0.2-3.4-0.2s-1.3,0.6-1.3,1.7v1.1c1,0.3,3.2,1.7,3.2,2.7v0.2c0.1,5.9-17.2,3.3-18.6,12.5H708v-8.9l-0.1-7.6l0.6-0.6
		c0.2-6.2,5.1-15.1,9.5-18.8c-0.6-0.7-14.6-4.9-15.7-5.3c-3.3,1.3-5.7,8.9-6.9,12.1c-1-0.2-4.4-1.1-7.1-1.4
		c-1.1,0.9-2.1,2.2-2.8,3.4c0-1.7-0.6-4.2-2.4-4.9h-8.7h-0.2h-8.7c-1.8,0.7-2.3,3.1-2.4,4.9c-0.7-1.2-1.7-2.5-2.8-3.4
		c-2.7,0.3-6.1,1.2-7.1,1.4c-1.2-3.1-3.5-10.7-6.9-12.1c-1.2,0.4-15.1,4.6-15.7,5.3c4.4,3.7,9.3,12.6,9.5,18.8l0.6,0.6l-0.1,7.6v8.9
		H640c-1.4-9.2-18.7-6.6-18.6-12.5v-0.2c0-1,2.2-2.5,3.2-2.7v-1.1c0-1.1-0.1-1.7-1.3-1.7s-2.2,0.1-3.4,0.2l-0.1-0.6
		c1.4-0.3,2.3-0.8,3.8-0.8c1.2,0,2.2,1.2,2.6,1.2c0.5,0,0.6-0.1,0.6-0.6c0-2.4-1.6-5.2-3.8-6.4c-1.2-0.6-2.7-1.2-4.5-1.2
		c-1.9,0-3.7,0.6-5.5,1.3l-3.3-5.9c-1.3,0.1-1.1,4-1.1,5.1c-2.1,0-2.3-2.3-4.4-2.3c1.7,5,3.3,10.4,1.9,14.6l-1.5-0.4
		c0.5-1.4,1-2.4,0.6-5.4c-0.4-3.1-5-6.4-8.9-6.4c-8.2,0-14.3,5.1-18.7,10.2c-3,3.5-6.8,7.2-10.7,9.8c-2.4,1.6-4.2,3.3-7.3,3.3
		c1.3,3.4,9,2.1,9.8,1.7c2.6,1.5,4.3,1.5,6.8,1c3.3,1.1,4.6,1,7.8-0.2c-0.2,0.7-3.2,4.8-4.4,6.2c-3,3.7-7,7.8-11.2,10.2
		c-3.4,1.9-6,3.4-9.8,4.1c0.1,4.4,6.7,2.8,8.6,2.5c1.9,1.1,4.7,1.4,7,1.2c9.9,2.7,15.8-2.4,18.8-4.7c1.5,1,3.5,1.6,5.9,0.6
		c3.5,2.4,5.4,1.5,7,0.8c3.3,1.6,5.5,0.3,6.4-0.6c1.1,0.4,2.1,0.5,3.2,0.2c-1.5,4.6-4,7.1-7.5,9.2c-3.4,2-7.3,2.6-10,5.3
		c-2.8,2.7-3.3,5.4-3.1,8c0.5,4.8,5.9,7.5,10.2,7.5c0,1-0.8,2-1.5,2.2c0.1,4.9,0.2,9.8,1.3,14.7H603v5.9c0,0.5,0.1,0.6,0.6,0.6h27.9
		c0.3,1.3-0.2,4.9,0.8,4.9h41.9h0.2h41.9c1,0,0.6-3.6,0.8-4.9H745c0.5,0,0.6-0.1,0.6-0.6v-5.9h-1.9c1.1-4.9,1.3-9.8,1.3-14.7
		c-0.7-0.2-1.5-1.2-1.5-2.2c4.3,0,9.7-2.6,10.2-7.5c0.3-2.6-0.3-5.3-3.1-8c-2.7-2.7-6.6-3.3-10-5.3c-3.6-2.1-6-4.6-7.5-9.2
		c1.1,0.3,2.1,0.1,3.2-0.2c0.9,0.9,3.1,2.2,6.4,0.6c1.6,0.7,3.4,1.5,7-0.8c2.4,0.9,4.4,0.4,5.9-0.6c3,2.3,8.9,7.4,18.8,4.7
		c2.3,0.2,5.2-0.1,7-1.2c1.9,0.3,8.5,1.9,8.6-2.5C786.2,98.8,783.5,97.3,780.2,95.4z M604.5,117.5c0.3,2.5,1.1,4.6,2.3,6.6
		C603.9,125.1,598.8,119.9,604.5,117.5z M611.8,82.4c0.2-0.2,1.8-2.7,1.7-3.6c1.3,0.1,2.8,2.2,2.8,3.7
		C616.3,84.7,611.8,84,611.8,82.4z M623.8,146.5V145c0-1.9-2.1-2-2.9-3.2c0-2.9-1.2-4.2-4-4.2c-2.3,0-3.8,2.3-5.6,2.3h-0.4
		c-2.1,0,0-7.6,3.4-7.6h3.8c2.2,0,3.3,2.3,4,5.5c0.5,2.2,1.1,3.7,2.4,5.3c0.7,0.8,2.4,1.6,2.8,3v0.4H623.8L623.8,146.5z M639,146.5
		h-4.6c-0.4-1.5-0.3-3.1-1.1-4.3c-1.7-2.8-5.4-3.4-5.9-6.2c-0.5-3.1-0.8-3.7-1.8-5c-0.9-1.4-1.8-2.5-3.6-2.7l0.7-4.8
		c0.9-0.5,2.5-1.4,3.9-1.4c0.8,0,2.4,0.3,2.4,1.1c0,1.2-1,1.3-1,3.8s3.1,4.9,4.7,6.2c1.6,1.3,5.3,3.2,6.1,3.2v10.1H639z
		 M669.3,136.3h-18.6c-0.7,0-0.8-0.9-0.8-1.7c0-0.5,1.3,0,1.3-2.7s-3-4.9-5.7-4.5s-7.1,2.2-8.6-0.6c4-1.1,6.6-5.8,6.6-9.1
		c0-3.3-2.5-5.2-5-6.1c-3-1-6.7-0.8-9-0.7c0.7-1.1,3.4-3.7,4.4-5.1c3.7,0.9,8.1-1.1,9.1-5.5c1.5,0.4,1.1,4.2,4.2,4.2h3.6v6.6
		c0,5.2,1.4,10.3,4.3,14.7c2.4,3.6,8.9,10,14.2,10.1V136.3z M744,117.5c5.8,2.4,0.6,7.6-2.3,6.6C742.9,122.1,743.7,120,744,117.5z
		 M703.1,127.4c-2.7-0.4-5.7,1.8-5.7,4.5s1.3,2.3,1.3,2.7c0,0.8-0.1,1.7-0.8,1.7h-18.6v-0.4c5.4-0.1,11.8-6.5,14.2-10.1
		c2.9-4.4,4.3-9.4,4.3-14.7v-6.6h3.6c3.2,0,2.8-3.8,4.2-4.2c1,4.4,5.4,6.4,9.1,5.5c0.9,1.4,3.7,4,4.4,5.1c-2.3-0.1-5.9-0.3-9,0.7
		c-2.5,0.9-5,2.8-5,6.1c0,3.3,2.5,8,6.6,9.1C710.3,129.6,705.8,127.8,703.1,127.4z M715.1,142.2c-0.7,1.2-0.7,2.7-1.1,4.3h-4.6
		v-10.1c0.9,0,4.5-1.9,6.1-3.2s4.7-3.7,4.7-6.2s-1-2.6-1-3.8c0-0.8,1.6-1.1,2.4-1.1c1.4,0,3,0.9,3.9,1.4l0.7,4.8
		c-1.8,0.2-2.6,1.3-3.6,2.7c-0.9,1.4-1.3,1.9-1.8,5C720.5,138.8,716.9,139.3,715.1,142.2z M734.2,132.3c3.4,0,5.5,7.6,3.4,7.6h-0.4
		c-1.7,0-3.2-2.3-5.6-2.3c-2.9,0-4,1.3-4,4.2c-0.8,1.2-2.9,1.3-2.9,3.2v1.5h-3.5v-0.4l0,0c0.4-1.5,2.1-2.3,2.8-3.1
		c1.4-1.6,2-3.1,2.4-5.3c0.7-3.2,1.8-5.5,4-5.5L734.2,132.3L734.2,132.3z M732.2,82.5c0-1.5,1.5-3.6,2.8-3.7
		c-0.1,0.9,1.5,3.4,1.7,3.6C736.7,84,732.2,84.7,732.2,82.5z"/>
	<path class="st3" d="M658.7,68.4l36.5,0.1L695,84.4c0,1-1.8,1.7-2,3c-0.1,1.4,0,2,1.8,2.9c-0.2,1.2-0.9,2.6-1,3.6s1.2,2.9,2.1,3.2
		v9.7L658.7,68.4z"/>
	<g>
		<g>
			<g>
				<defs>
					<path id="SVGID_1_" d="M701.6,103.2c-1.3,0-2.5,0-3.7,0c-0.1-1.6,0.3-3.8,0.4-5.3c2.2-0.2,2.1-2.7,3.6-2.7s2.6,2.4,2.6,3.7
						C703.4,99.4,702.5,103,701.6,103.2 M697.6,77.6l0.1-10.8c0.3-5.3,2-9.4,4-13.8c2.5,0.3,3.8,3.6,4.3,7.1s0.4,6.9,0.5,10.3
						c0.2,3.4-0.1,6.5-0.1,9.9s-0.2,6.9-0.2,9.6c-2.2-1.6-3.3-4-3.5-6.5v-2.6C702.7,79.4,698.2,77.5,697.6,77.6z"/>
				</defs>
				<clipPath id="SVGID_2_">
					<use xlink:href="#SVGID_1_"  style="overflow:visible;"/>
				</clipPath>
				
					<linearGradient id="SVGID_3_" gradientUnits="userSpaceOnUse" x1="601.7716" y1="847.4514" x2="602.7717" y2="847.4514" gradientTransform="matrix(9.0828 0 0 50.1284 -4768.123 -42403.3281)">
					<stop  offset="0" style="stop-color:#D1E7F1"/>
					<stop  offset="0.11" style="stop-color:#5C889B"/>
					<stop  offset="0.24" style="stop-color:#395B6A"/>
					<stop  offset="0.51" style="stop-color:#223E4A"/>
					<stop  offset="0.8" style="stop-color:#335361"/>
					<stop  offset="0.91" style="stop-color:#4B798C"/>
					<stop  offset="1" style="stop-color:#D1E7F1"/>
				</linearGradient>
				<rect x="697.6" y="53" class="st4" width="9.2" height="50.1"/>
			</g>
		</g>
	</g>
	<g>
		<g>
			<g>
				<defs>
					<path id="SVGID_4_" d="M682.4,66.4l14,0.1c0.1-5.3,2.4-9.7,4-13.8c-3.8-1.1-7.9-2-11.9-2.8c-1.7,1.8-3,4.8-4,7
						C683.6,59,682,63.8,682.4,66.4"/>
				</defs>
				<clipPath id="SVGID_5_">
					<use xlink:href="#SVGID_4_"  style="overflow:visible;"/>
				</clipPath>
				
					<linearGradient id="SVGID_6_" gradientUnits="userSpaceOnUse" x1="660.9797" y1="813.4411" x2="661.8199" y2="813.4411" gradientTransform="matrix(6.5962 -20.888 21.411 6.7614 -21088.0684 8373.4463)">
					<stop  offset="0" style="stop-color:#4D6B79"/>
					<stop  offset="0.5" style="stop-color:#A8C0CC"/>
					<stop  offset="0.9" style="stop-color:#EBF5F9"/>
					<stop  offset="0.97" style="stop-color:#B2D4E4"/>
					<stop  offset="1" style="stop-color:#8FC1D8"/>
				</linearGradient>
				<polygon class="st5" points="698.8,71.8 705.2,51.4 683.7,44.6 677.2,65 				"/>
			</g>
		</g>
	</g>
	<g>
		<g>
			<g>
				<defs>
					<path id="SVGID_7_" d="M632.5,112.2c-1.7,1.1-4.6,5.7-4.6,8.5c0.8,0.2,3.4,1.4,3.4,2.2c0,1.2-1.4,2.5-1.4,3.7
						c-0.3,3,6,7.1,9.4,8.2c0.8,0.2,1.8,0.8,2,1.4h7.5c-0.2-2.4-3.2-3.6-5.3-3.4c-1,0.1-1.8,0.6-2.8,0.6c1.9-4.5,8.2-0.8,8.9,0
						c0.4-2.3-1.2-4.4-3.8-4.4c-1.6,0-3.9,0.9-5.3,0.9c-1.9,0-5.4-1.2-5.3-3.7c3.1-1,6.1-4.7,6.4-6.9
						C642.1,114.7,638.2,112.2,632.5,112.2"/>
				</defs>
				<clipPath id="SVGID_8_">
					<use xlink:href="#SVGID_7_"  style="overflow:visible;"/>
				</clipPath>
				
					<linearGradient id="SVGID_9_" gradientUnits="userSpaceOnUse" x1="664.0625" y1="826.3647" x2="664.5425" y2="826.3647" gradientTransform="matrix(17.2615 -26.8512 26.32 16.92 -32577.9043 3979.5061)">
					<stop  offset="0" style="stop-color:#A7A8AA"/>
					<stop  offset="0.65" style="stop-color:#D3D4D6"/>
					<stop  offset="1" style="stop-color:#FFFFFF"/>
				</linearGradient>
				<polygon class="st6" points="643.5,146.2 660.9,119.2 634.3,102.2 617,129.2 				"/>
			</g>
		</g>
	</g>
	<g>
		<g>
			<g>
				<defs>
					<path id="SVGID_10_" d="M650.9,77.6l-0.1-10.8c-0.3-5.3-2-9.4-4-13.8c-2.5,0.3-3.8,3.6-4.3,7.1s-0.4,6.9-0.5,10.3
						c-0.2,3.4,0.1,6.5,0.1,9.9s0.2,6.9,0.2,9.6c2.2-1.6,3.3-4,3.5-6.5v-2.6C645.8,79.4,650.3,77.5,650.9,77.6 M647,103.2
						c1.3,0,2.5,0,3.7,0c0.1-1.6-0.3-3.8-0.4-5.3c-2.2-0.2-2.1-2.7-3.6-2.7s-2.6,2.4-2.6,3.7C645.1,99.4,646,103,647,103.2z"/>
				</defs>
				<clipPath id="SVGID_11_">
					<use xlink:href="#SVGID_10_"  style="overflow:visible;"/>
				</clipPath>
				
					<linearGradient id="SVGID_12_" gradientUnits="userSpaceOnUse" x1="601.7712" y1="847.4514" x2="602.7714" y2="847.4514" gradientTransform="matrix(9.0828 0 0 50.1284 -4823.9746 -42403.3281)">
					<stop  offset="0" style="stop-color:#D1E7F1"/>
					<stop  offset="0.11" style="stop-color:#5C889B"/>
					<stop  offset="0.24" style="stop-color:#395B6A"/>
					<stop  offset="0.51" style="stop-color:#223E4A"/>
					<stop  offset="0.8" style="stop-color:#335361"/>
					<stop  offset="0.91" style="stop-color:#4B798C"/>
					<stop  offset="1" style="stop-color:#D1E7F1"/>
				</linearGradient>
				<rect x="641.7" y="53" class="st7" width="9.2" height="50.1"/>
			</g>
		</g>
	</g>
	<g>
		<g>
			<g>
				<defs>
					<path id="SVGID_13_" d="M571.2,77.5c1.6,0.8,3.2,0.9,6.5-0.2c3.2-1.2,7.8-5.1,11.9-9.2c0.2,1.6-8,9.2-11.3,10.2
						c5.4,1.4,10-4.6,10.3-5c2.7-3.7,7.5-6.6,10.1-7.4c2.5-0.8,3.9-0.7,4-0.8c0.8-0.9,1.3-2.4,1.3-3.6c0-3.3-3.6-6.8-8.6-6.8
						s-11.7,4.2-15.4,8.7c-2.6,3.1-11.1,11.6-16.1,13.7l2.5,0.1c9.2-0.3,18.1-10.4,24.1-15.5c0,1.8-5.5,6.5-8,8.9
						C580,73.1,575.3,76.1,571.2,77.5"/>
				</defs>
				<clipPath id="SVGID_14_">
					<use xlink:href="#SVGID_13_"  style="overflow:visible;"/>
				</clipPath>
				
					<linearGradient id="SVGID_15_" gradientUnits="userSpaceOnUse" x1="687.4307" y1="825.2375" x2="688.1106" y2="825.2375" gradientTransform="matrix(-21.9211 -37.6672 43.5295 -25.3327 -20261.377 46879.4922)">
					<stop  offset="0" style="stop-color:#B7B9BA"/>
					<stop  offset="0.53" style="stop-color:#B7B9BA"/>
					<stop  offset="0.74" style="stop-color:#FBFBFB"/>
					<stop  offset="1" style="stop-color:#FFFFFF"/>
				</linearGradient>
				<polygon class="st8" points="614.8,73.4 593.8,37.3 553,61.1 574,97.2 				"/>
			</g>
		</g>
	</g>
	<g>
		<g>
			<g>
				<defs>
					<path id="SVGID_16_" d="M608.1,60.1c0.2,1.9-0.1,3.9-0.4,5.8c1.2,0.3,3.5,2.3,4.6,4.5s0.9,5.6,3.1,7.6c1.9,1.7,3.3,3.6,2.2,6
						c-1.5,2.2-3.8,1.6-5.3,0.9s-1.6-1.4-3.5-1c0.4-1.7,3.8-3.7,3.6-7.7c0-1.6-0.6-4.1-1.9-5.8c-1.6-2.2-4.1-4.2-8.8-3.7
						c-2.6,0.3-6.2,2-8.8,4.2c-2.5,2.1-3.8,4.5-7,7.5c-1.4,2.5-2.8,4.7-4.1,6.4c-3.3,4.5-9.2,10.5-13.4,12.5c-4.3,2-6.9,3.1-7.9,3.3
						c3.7,2.3,13.6-2.8,16.9-4.4c2.6-1.3,5.7-3.4,8-5.5c-2.9,5.8-12.4,8.8-16.2,10.5c1.5,0.6,2.7,0.8,4.2,0.6
						c4.8-0.4,9.4-3.5,14.3-6.9c-1.7,3.1-7.6,6.4-11.3,7.5c5.2,0.9,9.2-0.8,13.9-3.7c3-1.7,8.5-7.9,10.1-9.6
						c0.4,1.6-5.1,7.6-6.5,8.8c1.2,0.4,2.9,0.8,4.5,0.2c3.1-1.2,6.2-4.8,7.8-6.5c-0.3,1.3-4.5,6.5-5.8,6.8c2.1,2.2,5.5,0.2,6.9-1.2
						c1.4-1.4,2.3-2.4,3.2-3.1c-0.9,1.9-1.6,3.3-3.8,4.9c5,1.5,7.3-3.6,9.4-5.8c-0.3,1.6-1.2,3.3-2.9,4.9c5.4,0,7.1-3.4,7.7-8.2
						l0.4-0.1c0.2,3-1.6,9.1-4.6,9.8c-4.2,9.7-6.6,9.6-14.7,13.3c-3.4,1.3-6.1,5.2-6,8.4c0.1,3.2,3.6,6.9,8.8,6.9
						c0.7,0,1.5-0.1,2.5-0.1l-0.3-2.7c-1.2,0.1-2.6,0.4-4.3-0.6c-4.8-2.9-2.5-7.9,2.5-8.7c0.5,3,1.4,6.1,3.2,8.5l0.4,4.6
						c-0.8,0.6-1.3,0.8-2.4,0.7c0,0.9-1.2,2.3-1.7,2.9c0.1,4.5,0.3,9.5,1.3,13.7h16.2c0.5-2.6-1.5-2.1-2.5-3.5h-2.4
						c-1.8,0-1.9,0.7-3.6,1.7c-1.2,0.3-2.3,0.7-3-0.1c0.6-0.9,0.8-0.2,2-0.6c0.4-0.1,1.2-0.7,1.6-0.9c0.4-0.3,3.1-1.7,3.6-1.7h1.5
						c-0.3-1.4-1.3-2.2-3.2-2.2s-3.3,2.5-4.7,2.5c-1.7,0-2.9-0.9-3-2.9c0.2-3.8,0.6-8.3,6-8.2c1.4,0,3.6,0.3,4.5-0.4
						c1.3-1,2-2.5,1.9-4.1c-0.1-0.9-0.3-1.9-0.4-2.8l-0.6-3.7c0.3-2.2,0.9-5.7,4.6-7c1.9-0.7,7.3-6.5,7.3-7.5
						c-1.3-0.4-1.2-2.1-1.1-3.2c1.5,1.5,3.6,2.1,5.4,2c1.8-0.1,3-0.8,3.5-1.8c1.5-3,3.4-9.5,6.9-8.8c3.5,0.6,2.6,3.3,4,2.7
						c1.4-0.6,1.4-1.9,1-2.6l-0.9-3c0.3-1.6,1.8-0.5,2.1-2.3c0-1.8-2.4-1.7-3-1.1l-0.2-2.4c0.3-0.7,1.3-1.3,1-2.2
						c0-0.3-0.7-1.3-1-1.3c-3.6,0-1.7,5.1-4.2,7.9c-1.5,1.8-3.8,5.4-6.8,5.4c-2.6,0-4.3-1.3-4.3-4.2c0-0.6,0.2-0.6,0.8-0.6
						c0.4,1.5,1.7,3.1,3.2,2.7s2.3-0.7,2.1-2.4c-0.2-1.8-0.6-6.6-1.2-8.4c-1.6-5.7-7.2-7.9-13.4-9c-3.9-0.7-6.8-3.6-6.8-4.7
						c-0.3-2,1.2-3.6,2.6-4.8H619c-0.1,0.3-2.5,2.4-3.2,2.4h-0.9l0.7-3.8c0.3-0.4,0.4-0.4,0.4-0.8c0-2.1,0-3.5-0.9-5.5
						c-1.3,0.1-2.5,2.1-3.1,2.1c-1.4,0-3.6-2.1-5.3-2.5C607.3,56.4,607.8,58.2,608.1,60.1"/>
				</defs>
				<clipPath id="SVGID_17_">
					<use xlink:href="#SVGID_16_"  style="overflow:visible;"/>
				</clipPath>
				
					<linearGradient id="SVGID_18_" gradientUnits="userSpaceOnUse" x1="680.9791" y1="839.916" x2="681.0792" y2="839.916" gradientTransform="matrix(140.8642 -120.2953 120.1729 140.7209 -196240 -36186.4961)">
					<stop  offset="0" style="stop-color:#B7B9BA"/>
					<stop  offset="0.7" style="stop-color:#DDDEDF"/>
					<stop  offset="1" style="stop-color:#FFFFFF"/>
				</linearGradient>
				<polygon class="st9" points="599.4,192 698.1,107.8 613.9,9.2 515.3,93.4 				"/>
			</g>
		</g>
	</g>
	<g>
		<g>
			<g>
				<defs>
					<path id="SVGID_19_" d="M666.1,66.4l-14,0.1c-0.1-5.3-2.4-9.7-4-13.8c3.8-1.1,7.9-2,11.9-2.8c1.7,1.8,3,4.8,4,7
						C664.9,59,666.5,63.8,666.1,66.4"/>
				</defs>
				<clipPath id="SVGID_20_">
					<use xlink:href="#SVGID_19_"  style="overflow:visible;"/>
				</clipPath>
				
					<linearGradient id="SVGID_21_" gradientUnits="userSpaceOnUse" x1="679.5433" y1="804.4532" x2="680.4032" y2="804.4532" gradientTransform="matrix(-5.3496 -20.8039 21.2017 -5.4519 -12760.8965 18590.0273)">
					<stop  offset="0" style="stop-color:#4D6B79"/>
					<stop  offset="0.5" style="stop-color:#A8C0CC"/>
					<stop  offset="0.9" style="stop-color:#EBF5F9"/>
					<stop  offset="0.97" style="stop-color:#B2D4E4"/>
					<stop  offset="1" style="stop-color:#8FC1D8"/>
				</linearGradient>
				<polygon class="st10" points="670.5,65.5 665.4,45.4 644.1,50.9 649.2,70.9 				"/>
			</g>
		</g>
	</g>
	<path class="st11" d="M687.8,128.5l-34.9-36.8v-0.9c1.8-0.6,1.9-1.5,1.8-2.9c-0.1-1.4-2.1-1.9-2.1-2.9l-0.2-16.5h3.3l40.2,41
		C695.6,117.9,692.5,123.8,687.8,128.5"/>
	<path class="st3" d="M674.3,134.6L674.3,134.6L674.3,134.6h-0.2l0,0l0,0c-11,0.3-20.4-10.6-21.3-21V94l34,35.8
		C683.6,132.7,678.8,134.7,674.3,134.6L674.3,134.6z"/>
	<g>
		<g>
			<g>
				<defs>
					<path id="SVGID_22_" d="M674.2,146.5h-33c-0.5,0-0.6-0.1-0.6-0.6v-7c0-0.6,0.1-0.6,0.2-1.1h33.4h0.2h33.4
						c0.1,0.5,0.2,0.5,0.2,1.1v7c0,0.5-0.1,0.6-0.6,0.6h-33H674.2z"/>
				</defs>
				<clipPath id="SVGID_23_">
					<use xlink:href="#SVGID_22_"  style="overflow:visible;"/>
				</clipPath>
				
					<linearGradient id="SVGID_24_" gradientUnits="userSpaceOnUse" x1="649.2003" y1="830.1218" x2="649.9003" y2="830.1218" gradientTransform="matrix(0 -8.6655 67.4759 0 -55338.9648 5770.8179)">
					<stop  offset="0" style="stop-color:#B1B3B4"/>
					<stop  offset="0.77" style="stop-color:#D9DADB"/>
					<stop  offset="1" style="stop-color:#FFFFFF"/>
				</linearGradient>
				<rect x="640.5" y="137.8" class="st12" width="67.5" height="8.7"/>
			</g>
		</g>
	</g>
	<path class="st13" d="M674.2,146.5h-33c-0.5,0-0.6-0.1-0.6-0.6v-7c0-0.6,0.1-0.6,0.2-1.1h33.4h0.2h33.4c0.1,0.5,0.2,0.5,0.2,1.1v7
		c0,0.5-0.1,0.6-0.6,0.6h-33H674.2z"/>
	<path class="st14" d="M674.3,151.6L674.3,151.6L674.3,151.6h-0.2l0,0c-9.4,0-17.9,0.1-20.1,0.1c-8.4,0-16.8,0-25.1,0
		c-4.2,0-8.5,0-12.7,0c-2.1,0-4.2,0-6.3,0c-1.2,0-5.5,0.5-5.5-0.6v-1.9c0-0.6,0.1-0.6,0.2-1.1l69.6,0.2l0,0h0.1h0.1l0,0l69.6-0.2
		c0.1,0.5,0.2,0.5,0.2,1.1v1.9c0,1.1-4.3,0.6-5.5,0.6c-2.1,0-4.2,0-6.3,0c-4.2,0-8.5,0-12.7,0c-8.4,0-16.8,0-25.1,0
		C692.3,151.7,683.8,151.7,674.3,151.6z"/>
	<path class="st13" d="M674.3,151.6L674.3,151.6L674.3,151.6h-0.2l0,0c-9.4,0-17.9,0.1-20.1,0.1c-8.4,0-16.8,0-25.1,0
		c-4.2,0-8.5,0-12.7,0c-2.1,0-4.2,0-6.3,0c-1.2,0-5.5,0.5-5.5-0.6v-1.9c0-0.6,0.1-0.6,0.2-1.1l69.6,0.2l0,0h0.1h0.1l0,0l69.6-0.2
		c0.1,0.5,0.2,0.5,0.2,1.1v1.9c0,1.1-4.3,0.6-5.5,0.6c-2.1,0-4.2,0-6.3,0c-4.2,0-8.5,0-12.7,0c-8.4,0-16.8,0-25.1,0
		C692.3,151.7,683.8,151.7,674.3,151.6z"/>
	<g>
		<g>
			<g>
				<defs>
					<path id="SVGID_25_" d="M674.2,66.4h-6.8c0-2.3-0.3-4.5-1.1-6.8c-0.8-2.2-2.1-5-2.1-7c-0.1-2,0.7-4.1,1.4-4.5
						c0.6-0.1,1.1-0.1,1.8-0.1h6.8h0.2h6.8c0.7,0,1.2,0,1.8,0.1c0.6,0.4,1.4,2.6,1.4,4.5c-0.1,2-1.3,4.8-2.1,7s-1.1,4.5-1.1,6.8
						h-6.8H674.2z"/>
				</defs>
				<clipPath id="SVGID_26_">
					<use xlink:href="#SVGID_25_"  style="overflow:visible;"/>
				</clipPath>
				
					<linearGradient id="SVGID_27_" gradientUnits="userSpaceOnUse" x1="667.8968" y1="803.9007" x2="668.8976" y2="803.9007" gradientTransform="matrix(0 -18.3855 20.1538 0 -15527.4033 12345.9912)">
					<stop  offset="0" style="stop-color:#3E6677"/>
					<stop  offset="0.47" style="stop-color:#C0DCE9"/>
					<stop  offset="1" style="stop-color:#3E6677"/>
				</linearGradient>
				<rect x="664.1" y="48" class="st15" width="20.3" height="18.4"/>
			</g>
		</g>
	</g>
	<g>
		<g>
			<g>
				<defs>
					<path id="SVGID_28_" d="M623.8,57.5c-4.8,0-5.1,2.2-6.7,2.3c0.1-1.6-0.2-3.2-0.7-4.8C617.7,54.2,623.2,53.8,623.8,57.5"/>
				</defs>
				<clipPath id="SVGID_29_">
					<use xlink:href="#SVGID_28_"  style="overflow:visible;"/>
				</clipPath>
				
					<linearGradient id="SVGID_30_" gradientUnits="userSpaceOnUse" x1="611.8354" y1="774.3498" x2="612.3555" y2="774.3498" gradientTransform="matrix(2.7641 -7.1406 8.2292 3.1855 -7444.1401 1961.1412)">
					<stop  offset="0" style="stop-color:#A7A8AA"/>
					<stop  offset="0.65" style="stop-color:#D3D4D6"/>
					<stop  offset="1" style="stop-color:#FFFFFF"/>
				</linearGradient>
				<polygon class="st16" points="622.9,62.3 625.9,54.6 617.4,51.3 614.4,59 				"/>
			</g>
		</g>
	</g>
	<g>
		<g>
			<g>
				<defs>
					<path id="SVGID_31_" d="M651.9,50.2c-1.8,0.4-2.3,0.6-6.1,1.6s-4,4.6-4.8,8.2c-0.6-7.3-4.8-12.9-7.7-16.5
						c2.8-1.1,8.7-2.9,12.6-4.2C648.4,39.6,651,48,651.9,50.2"/>
				</defs>
				<clipPath id="SVGID_32_">
					<use xlink:href="#SVGID_31_"  style="overflow:visible;"/>
				</clipPath>
				
					<linearGradient id="SVGID_33_" gradientUnits="userSpaceOnUse" x1="686.1738" y1="809.5068" x2="686.8138" y2="809.5068" gradientTransform="matrix(-11.1525 -24.1636 23.2401 -10.7263 -10514.373 25320.8535)">
					<stop  offset="0" style="stop-color:#3E6677"/>
					<stop  offset="0.8" style="stop-color:#83A6B7"/>
					<stop  offset="1" style="stop-color:#D3E8F3"/>
				</linearGradient>
				<polygon class="st17" points="659.7,56.4 648.6,32.2 625.3,43 636.5,67.1 				"/>
			</g>
		</g>
	</g>
	<g>
		<g>
			<g>
				<defs>
					<path id="SVGID_34_" d="M696.7,50.2c1.8,0.4,2.3,0.6,6.1,1.6s4,4.6,4.8,8.2c0.6-7.3,4.8-12.9,7.7-16.5
						c-2.8-1.1-8.7-2.9-12.6-4.2C700.1,39.6,697.6,48,696.7,50.2"/>
				</defs>
				<clipPath id="SVGID_35_">
					<use xlink:href="#SVGID_34_"  style="overflow:visible;"/>
				</clipPath>
				
					<linearGradient id="SVGID_36_" gradientUnits="userSpaceOnUse" x1="661.7699" y1="821.2804" x2="662.3899" y2="821.2804" gradientTransform="matrix(12.5778 -23.8978 23.1265 12.1718 -26614.8672 5875.4561)">
					<stop  offset="0" style="stop-color:#3E6677"/>
					<stop  offset="0.8" style="stop-color:#83A6B7"/>
					<stop  offset="1" style="stop-color:#D3E8F3"/>
				</linearGradient>
				<polygon class="st18" points="711.3,67.7 723.8,43.8 700.7,31.6 688.1,55.5 				"/>
			</g>
		</g>
	</g>
	<path d="M613.5,60.3c-1.1-0.8,0-0.6,0-1.3c0-0.4,0.1-0.5-0.3-0.4c-1.9,0.2-2.5,1.5-2.6,3.1c0,0.5-0.1,0.5,0.3,0.6
		c0.5,0.1,0.5,0.1,0.6-0.4c0.1-0.8,0.4-0.3,1,0.1C613.1,62.4,614,61,613.5,60.3"/>
	<path class="st19" d="M623.8,138c0.5,2.7,0.8,3,2.2,4.5c0.9,0.7,3.1,2.5,3.4,3.5l0,0l0,0c0,0.1,0,0.1,0,0.2l0,0v0.3h3.6
		c-0.2-2.9-0.9-4.5-3-5.6c-1.8-0.8-4.2-3-4.2-5s-2.2-6.2-3.9-6.2c-0.3,1-0.7,0.9-1.1,1.7C622.1,133.7,623.3,135.3,623.8,138"/>
	<g>
		<g>
			<g>
				<defs>
					<path id="SVGID_37_" d="M617.7,83.9c-1.5,2.2-3.8,1.6-5.3,0.9s-1.6-1.4-3.5-1c0.4-1.7,3.8-3.7,3.6-7.7c0-1.6-0.6-4.1-1.9-5.8
						c-1.6-2.2-4.1-4.2-8.8-3.7c-2.6,0.3-6.2,2-8.8,4.2c-2.5,2.1-3.8,4.5-7,7.5c-1.4,2.5-2.8,4.7-4.1,6.4
						c-3.3,4.5-9.2,10.5-13.4,12.5c-4.3,2-6.9,3.1-7.9,3.3c3.7,2.3,13.6-2.8,16.9-4.4c2.6-1.3,5.7-3.4,8-5.5
						c-2.9,5.8-12.4,8.8-16.2,10.5c1.5,0.6,2.7,0.8,4.2,0.6c4.8-0.4,9.4-3.5,14.3-6.9c-1.7,3.1-7.6,6.4-11.3,7.5
						c5.2,0.9,9.2-0.8,13.9-3.7c3-1.7,8.5-7.9,10.1-9.6c0.4,1.6-5.1,7.6-6.5,8.8c1.2,0.4,2.9,0.8,4.5,0.2c3.1-1.2,6.2-4.8,7.8-6.5
						c-0.3,1.3-4.5,6.5-5.8,6.8c2.1,2.2,5.5,0.2,6.9-1.2c1.4-1.4,2.3-2.4,3.2-3.1c-0.9,1.9-1.6,3.3-3.8,4.9c5,1.5,7.3-3.6,9.4-5.8
						c-0.3,1.6-1.2,3.3-2.9,4.9c5.4,0,7.1-3.4,7.7-8.2l0.4-0.1L617.7,83.9z"/>
				</defs>
				<clipPath id="SVGID_38_">
					<use xlink:href="#SVGID_37_"  style="overflow:visible;"/>
				</clipPath>
				
					<linearGradient id="SVGID_39_" gradientUnits="userSpaceOnUse" x1="688.9825" y1="832.5085" x2="689.2626" y2="832.5085" gradientTransform="matrix(-63.5926 -59.1559 58.0662 -62.4212 -3924.6592 92818.2031)">
					<stop  offset="0" style="stop-color:#B7B9BA"/>
					<stop  offset="0.62" style="stop-color:#DDDEDF"/>
					<stop  offset="1" style="stop-color:#FFFFFF"/>
				</linearGradient>
				<polygon class="st20" points="640,83.3 588.8,35.7 542.1,86 593.2,133.6 				"/>
			</g>
		</g>
	</g>
	
		<radialGradient id="SVGID_40_" cx="964.3248" cy="878.1857" r="6.0183" gradientTransform="matrix(0.7855 0.6188 -0.9457 1.2004 684.6006 -1545.262)" gradientUnits="userSpaceOnUse">
		<stop  offset="0" style="stop-color:#FFFFFF"/>
		<stop  offset="0.7" style="stop-color:#DDDEDF"/>
		<stop  offset="0.966" style="stop-color:#B7B9BA"/>
	</radialGradient>
	<path class="st21" d="M615.7,109.9c2.4-2,4.2-9.1,2.7-9.9s-4.1,6.3-6.8,8.2c-2.7,1.8-7.2,4.4-3.5,4.6
		C611.8,113,613.2,111.9,615.7,109.9"/>
	<g>
		<g>
			<g>
				<defs>
					<path id="SVGID_41_" d="M606.2,146.4h16.2c0.5-2.6-1.5-2.1-2.5-3.5h-2.4c-1.8,0-1.9,0.7-3.6,1.7c-1.2,0.3-2.3,0.7-3-0.1
						c0.6-0.9,0.8-0.2,2-0.6c0.4-0.1,1.2-0.7,1.6-0.9c0.4-0.3,3.1-1.7,3.6-1.7h1.5c-0.3-1.4-1.3-2.2-3.2-2.2s-3.3,2.5-4.7,2.5
						c-1.7,0-2.9-0.9-3-2.9L606.2,146.4z"/>
				</defs>
				<clipPath id="SVGID_42_">
					<use xlink:href="#SVGID_41_"  style="overflow:visible;"/>
				</clipPath>
				
					<linearGradient id="SVGID_43_" gradientUnits="userSpaceOnUse" x1="652.3658" y1="818.8971" x2="652.4858" y2="818.8971" gradientTransform="matrix(10.4632 -17.0737 18.282 11.2037 -21181.7207 2105.208)">
					<stop  offset="0" style="stop-color:#B7B9BA"/>
					<stop  offset="0.65" style="stop-color:#DDDEDF"/>
					<stop  offset="1" style="stop-color:#FFFFFF"/>
				</linearGradient>
				<polygon class="st22" points="618.4,153.9 626.4,140.8 610.8,131.2 602.8,144.3 				"/>
			</g>
		</g>
	</g>
	<g>
		<g>
			<g>
				<defs>
					<path id="SVGID_44_" d="M740,60.1c-0.2,1.9,0.1,3.9,0.4,5.8c-1.2,0.3-3.5,2.3-4.6,4.5s-0.9,5.6-3.1,7.6c-1.9,1.7-3.3,3.6-2.2,6
						c1.5,2.2,3.8,1.6,5.3,0.9s1.6-1.4,3.5-1c-0.4-1.7-3.8-3.7-3.6-7.7c0-1.6,0.6-4.1,1.9-5.8c1.6-2.2,4.1-4.2,8.8-3.7
						c2.6,0.3,6.2,2,8.8,4.2c2.5,2.1,3.8,4.5,7,7.5c1.4,2.5,2.8,4.7,4.1,6.4c3.3,4.5,9.2,10.5,13.4,12.5c4.3,2,6.9,3.1,7.9,3.3
						c-3.7,2.3-13.6-2.8-16.9-4.4c-2.6-1.3-5.7-3.4-8-5.5c2.9,5.8,12.4,8.8,16.2,10.5c-1.5,0.6-2.7,0.8-4.2,0.6
						c-4.8-0.4-9.4-3.5-14.3-6.9c1.7,3.1,7.6,6.4,11.3,7.5c-5.2,0.9-9.2-0.8-13.9-3.7c-3-1.7-8.5-7.9-10.1-9.6
						c-0.4,1.6,5.1,7.6,6.5,8.8c-1.2,0.4-2.9,0.8-4.5,0.2c-3.1-1.2-6.2-4.8-7.8-6.5c0.3,1.3,4.5,6.5,5.8,6.8
						c-2.1,2.2-5.5,0.2-6.9-1.2c-1.4-1.4-2.3-2.4-3.2-3.1c0.9,1.9,1.6,3.3,3.8,4.9c-5,1.5-7.3-3.6-9.4-5.8c0.3,1.6,1.2,3.3,2.9,4.9
						c-5.4,0-7.1-3.4-7.7-8.2l-0.4-0.1c-0.2,3,1.6,9.1,4.6,9.8c4.2,9.7,6.6,9.6,14.7,13.3c3.4,1.3,6.1,5.2,6,8.4
						c-0.1,3.2-3.6,6.9-8.8,6.9c-0.7,0-1.5-0.1-2.5-0.1l0.3-2.7c1.2,0.1,2.6,0.4,4.3-0.6c4.8-2.9,2.5-7.9-2.5-8.7
						c-0.5,3-1.4,6.1-3.2,8.5l-0.4,4.6c0.8,0.6,1.3,0.8,2.4,0.7c0,0.9,1.2,2.3,1.7,2.9c-0.1,4.5-0.3,9.5-1.3,13.7h-16.2
						c-0.5-2.6,1.5-2.1,2.5-3.5h2.4c1.8,0,1.9,0.7,3.6,1.7c1.2,0.3,2.3,0.7,3-0.1c-0.6-0.9-0.8-0.2-2-0.6c-0.4-0.1-1.2-0.7-1.6-0.9
						c-0.4-0.3-3.1-1.7-3.6-1.7h-1.5c0.3-1.4,1.3-2.2,3.2-2.2s3.3,2.5,4.7,2.5c1.7,0,2.9-0.9,3-2.9c-0.2-3.8-0.6-8.3-6-8.2
						c-1.4,0-3.6,0.3-4.5-0.4c-1.3-1-2-2.5-1.9-4.1c0.1-0.9,0.3-1.9,0.4-2.8l0.6-3.7c-0.3-2.2-0.9-5.7-4.6-7
						c-1.9-0.7-7.3-6.5-7.3-7.5c1.3-0.4,1.2-2.1,1.1-3.2c-1.5,1.5-3.6,2.1-5.4,2c-1.8-0.1-3-0.8-3.5-1.8c-1.5-3-3.4-9.5-6.9-8.8
						c-3.5,0.6-2.6,3.3-4,2.7c-1.4-0.6-1.4-1.9-1-2.6l0.9-3c-0.3-1.6-1.8-0.5-2.1-2.3c0-1.8,2.4-1.7,3-1.1l0.2-2.4
						c-0.3-0.7-1.3-1.3-1-2.2c0-0.3,0.7-1.3,1-1.3c3.6,0,1.7,5.1,4.2,7.9c1.5,1.8,3.8,5.4,6.8,5.4c2.6,0,4.3-1.3,4.3-4.2
						c0-0.6-0.2-0.6-0.8-0.6c-0.4,1.5-1.7,3.1-3.2,2.7s-2.3-0.7-2.1-2.4c0.2-1.8,0.6-6.6,1.2-8.4c1.6-5.7,7.2-7.9,13.4-9
						c3.9-0.7,6.8-3.6,6.8-4.7c0.3-2-1.2-3.6-2.6-4.8h2.5c0.1,0.3,2.5,2.4,3.2,2.4h0.9l-0.7-3.8c-0.3-0.4-0.4-0.4-0.4-0.8
						c0-2.1,0-3.5,0.9-5.5c1.3,0.1,2.5,2.1,3.1,2.1c1.4,0,3.6-2.1,5.3-2.5C740.8,56.4,740.3,58.2,740,60.1"/>
				</defs>
				<clipPath id="SVGID_45_">
					<use xlink:href="#SVGID_44_"  style="overflow:visible;"/>
				</clipPath>
				
					<linearGradient id="SVGID_46_" gradientUnits="userSpaceOnUse" x1="687.1569" y1="837.36" x2="687.2569" y2="837.36" gradientTransform="matrix(-140.8642 -120.2953 120.1729 -140.7209 -3104.7627 200584.4219)">
					<stop  offset="0" style="stop-color:#B7B9BA"/>
					<stop  offset="0.7" style="stop-color:#DDDEDF"/>
					<stop  offset="1" style="stop-color:#FFFFFF"/>
				</linearGradient>
				<polygon class="st23" points="832.9,93.4 734.2,9.2 650,107.8 748.7,192 				"/>
			</g>
		</g>
	</g>
	<g>
		<g>
			<g>
				<defs>
					<path id="SVGID_47_" d="M730.5,83.9c1.5,2.2,3.8,1.6,5.3,0.9s1.6-1.4,3.5-1c-0.4-1.7-3.8-3.7-3.6-7.7c0-1.6,0.6-4.1,1.9-5.8
						c1.6-2.2,4.1-4.2,8.8-3.7c2.6,0.3,6.2,2,8.8,4.2c2.5,2.1,3.8,4.5,7,7.5c1.4,2.5,2.8,4.7,4.1,6.4c3.3,4.5,9.2,10.5,13.4,12.5
						c4.3,2,6.9,3.1,7.9,3.3c-3.7,2.3-13.6-2.8-16.9-4.4c-2.6-1.3-5.7-3.4-8-5.5c2.9,5.8,12.4,8.8,16.2,10.5
						c-1.5,0.6-2.7,0.8-4.2,0.6c-4.8-0.4-9.4-3.5-14.3-6.9c1.7,3.1,7.6,6.4,11.3,7.5c-5.2,0.9-9.2-0.8-13.9-3.7
						c-3-1.7-8.5-7.9-10.1-9.6c-0.4,1.6,5.1,7.6,6.5,8.8c-1.2,0.4-2.9,0.8-4.5,0.2c-3.1-1.2-6.2-4.8-7.8-6.5
						c0.3,1.3,4.5,6.5,5.8,6.8c-2.1,2.2-5.5,0.2-6.9-1.2c-1.4-1.4-2.3-2.4-3.2-3.1c0.9,1.9,1.6,3.3,3.8,4.9c-5,1.5-7.3-3.6-9.4-5.8
						c0.3,1.6,1.2,3.3,2.9,4.9c-5.4,0-7.1-3.4-7.7-8.2l-0.4-0.1L730.5,83.9z"/>
				</defs>
				<clipPath id="SVGID_48_">
					<use xlink:href="#SVGID_47_"  style="overflow:visible;"/>
				</clipPath>
				
					<linearGradient id="SVGID_49_" gradientUnits="userSpaceOnUse" x1="676.2928" y1="838.0226" x2="676.5728" y2="838.0226" gradientTransform="matrix(63.5928 -59.1561 58.0662 62.4212 -90921.7109 -12208.9414)">
					<stop  offset="0" style="stop-color:#B7B9BA"/>
					<stop  offset="0.62" style="stop-color:#DDDEDF"/>
					<stop  offset="1" style="stop-color:#FFFFFF"/>
				</linearGradient>
				<polygon class="st24" points="754.9,133.6 806.1,86 759.3,35.7 708.2,83.3 				"/>
			</g>
		</g>
	</g>
	
		<radialGradient id="SVGID_50_" cx="706.296" cy="324.9648" r="3.4935" fx="705.8205" fy="324.9517" gradientTransform="matrix(0.7822 -0.623 1.5664 1.9667 -326.6576 -92.4285)" gradientUnits="userSpaceOnUse">
		<stop  offset="0" style="stop-color:#FFFFFF"/>
		<stop  offset="0.7" style="stop-color:#DDDEDF"/>
		<stop  offset="0.966" style="stop-color:#B7B9BA"/>
	</radialGradient>
	<path class="st25" d="M732.4,109.9c-2.4-2-4.2-9.1-2.7-9.9s4.1,6.3,6.8,8.2c2.7,1.8,7.2,4.4,3.5,4.6
		C736.3,113,734.9,111.9,732.4,109.9"/>
	<path d="M735,60.3c1.1-0.8,0-0.6,0-1.3c0-0.4-0.1-0.5,0.3-0.4c1.9,0.2,2.5,1.5,2.6,3.1c0,0.5,0.1,0.5-0.3,0.6
		c-0.5,0.1-0.5,0.1-0.6-0.4c-0.1-0.8-0.4-0.3-1,0.1C735.4,62.4,734.5,61,735,60.3"/>
	<g>
		<g>
			<g>
				<defs>
					<path id="SVGID_51_" d="M741.9,146.4h-16.2c-0.5-2.6,1.5-2.1,2.5-3.5h2.4c1.8,0,1.9,0.7,3.6,1.7c1.2,0.3,2.3,0.7,3-0.1
						c-0.6-0.9-0.8-0.2-2-0.6c-0.4-0.1-1.2-0.7-1.6-0.9c-0.4-0.3-3.1-1.7-3.6-1.7h-1.5c0.3-1.4,1.3-2.2,3.2-2.2s3.3,2.5,4.7,2.5
						c1.7,0,2.9-0.9,3-2.9L741.9,146.4z"/>
				</defs>
				<clipPath id="SVGID_52_">
					<use xlink:href="#SVGID_51_"  style="overflow:visible;"/>
				</clipPath>
				
					<linearGradient id="SVGID_53_" gradientUnits="userSpaceOnUse" x1="691.6163" y1="803.7369" x2="691.7361" y2="803.7369" gradientTransform="matrix(-10.4634 -17.074 18.282 -11.2037 -6724.269 20955.041)">
					<stop  offset="0" style="stop-color:#B7B9BA"/>
					<stop  offset="0.65" style="stop-color:#DDDEDF"/>
					<stop  offset="1" style="stop-color:#FFFFFF"/>
				</linearGradient>
				<polygon class="st26" points="745.4,144.3 737.4,131.2 721.8,140.8 729.8,153.9 				"/>
			</g>
		</g>
	</g>
	<path class="st19" d="M724.7,138c-0.5,2.7-0.8,3-2.2,4.5c-0.9,0.7-3.1,2.5-3.4,3.5l0,0l0,0c0,0.1,0,0.1,0,0.2l0,0v0.3h-3.6
		c0.2-2.9,0.9-4.5,3-5.6c1.8-0.8,4.2-3,4.2-5s2.2-6.2,3.9-6.2c0.3,1,0.7,0.9,1.1,1.7C726.5,133.7,725.3,135.3,724.7,138"/>
	<g>
		<g>
			<g>
				<defs>
					<path id="SVGID_54_" d="M716,112.2c1.7,1.1,4.6,5.7,4.6,8.5c-0.8,0.2-3.4,1.4-3.4,2.2c0,1.2,1.4,2.5,1.4,3.7
						c0.3,3-6,7.1-9.4,8.2c-0.8,0.2-1.8,0.8-2,1.4h-7.5c0.2-2.4,3.2-3.6,5.3-3.4c1,0.1,1.8,0.6,2.8,0.6c-1.9-4.5-8.2-0.8-8.9,0
						c-0.4-2.3,1.2-4.4,3.8-4.4c1.6,0,3.9,0.9,5.3,0.9c1.9,0,5.4-1.2,5.3-3.7c-3.1-1-6.1-4.7-6.4-6.9
						C706.4,114.7,710.4,112.2,716,112.2"/>
				</defs>
				<clipPath id="SVGID_55_">
					<use xlink:href="#SVGID_54_"  style="overflow:visible;"/>
				</clipPath>
				
					<linearGradient id="SVGID_56_" gradientUnits="userSpaceOnUse" x1="689.5648" y1="815.6895" x2="690.0449" y2="815.6895" gradientTransform="matrix(-17.2621 -26.8512 26.3197 -16.9204 -8851.5635 32448.1406)">
					<stop  offset="0" style="stop-color:#A7A8AA"/>
					<stop  offset="0.65" style="stop-color:#D3D4D6"/>
					<stop  offset="1" style="stop-color:#FFFFFF"/>
				</linearGradient>
				<polygon class="st27" points="731.6,129.2 714.2,102.2 687.7,119.2 705,146.2 				"/>
			</g>
		</g>
	</g>
	<g>
		<g>
			<g>
				<defs>
					<path id="SVGID_57_" d="M724.4,57.4c4.8,0,5.1,2.2,6.7,2.3c-0.1-1.6,0.2-3.2,0.7-4.8C730.5,54.2,725,53.7,724.4,57.4"/>
				</defs>
				<clipPath id="SVGID_58_">
					<use xlink:href="#SVGID_57_"  style="overflow:visible;"/>
				</clipPath>
				
					<linearGradient id="SVGID_59_" gradientUnits="userSpaceOnUse" x1="682.7374" y1="749.0571" x2="683.2575" y2="749.0571" gradientTransform="matrix(-2.7643 -7.1409 8.2292 -3.1856 -3547.9624 7320.4443)">
					<stop  offset="0" style="stop-color:#A7A8AA"/>
					<stop  offset="0.65" style="stop-color:#D3D4D6"/>
					<stop  offset="1" style="stop-color:#FFFFFF"/>
				</linearGradient>
				<polygon class="st28" points="733.8,59 730.8,51.2 722.3,54.5 725.3,62.2 				"/>
			</g>
		</g>
	</g>
	<g>
		<g>
			<g>
				<defs>
					<path id="SVGID_60_" d="M777.3,77.5c-1.6,0.8-3.2,0.9-6.5-0.2c-3.2-1.2-7.8-5.1-11.9-9.2c-0.2,1.6,8,9.2,11.3,10.2
						c-5.4,1.4-10-4.6-10.3-5c-2.7-3.7-7.5-6.6-10.1-7.4c-2.5-0.8-3.9-0.7-4-0.8c-0.8-0.9-1.3-2.4-1.3-3.6c0-3.3,3.6-6.8,8.6-6.8
						s11.7,4.2,15.4,8.7c2.6,3.1,11.1,11.6,16.1,13.7l-2.5,0.1c-9.2-0.3-18.1-10.4-24.1-15.5c0,1.8,5.5,6.5,8,8.9
						C768.6,73.1,773.2,76.1,777.3,77.5"/>
				</defs>
				<clipPath id="SVGID_61_">
					<use xlink:href="#SVGID_60_"  style="overflow:visible;"/>
				</clipPath>
				
					<linearGradient id="SVGID_62_" gradientUnits="userSpaceOnUse" x1="670.0453" y1="831.4751" x2="670.7255" y2="831.4751" gradientTransform="matrix(21.9211 -37.6672 43.5297 25.3329 -50125.0586 4255.4731)">
					<stop  offset="0" style="stop-color:#B7B9BA"/>
					<stop  offset="0.53" style="stop-color:#B7B9BA"/>
					<stop  offset="0.74" style="stop-color:#FBFBFB"/>
					<stop  offset="1" style="stop-color:#FFFFFF"/>
				</linearGradient>
				<polygon class="st29" points="774.5,97.2 795.5,61.1 754.7,37.3 733.7,73.4 				"/>
			</g>
		</g>
	</g>
	<g>
		<g>
			<g>
				<defs>
					<path id="SVGID_63_" d="M609.8,50.9l2.3,3.8c-0.9,0.1-1.5-0.7-2.2-0.8L609.8,50.9z"/>
				</defs>
				<clipPath id="SVGID_64_">
					<use xlink:href="#SVGID_63_"  style="overflow:visible;"/>
				</clipPath>
				
					<linearGradient id="SVGID_65_" gradientUnits="userSpaceOnUse" x1="581.2501" y1="597.8842" x2="581.91" y2="597.8842" gradientTransform="matrix(0.6736 -4.0736 2.8056 0.4639 -1458.2698 2144.5774)">
					<stop  offset="0" style="stop-color:#A7A8AA"/>
					<stop  offset="0.65" style="stop-color:#D3D4D6"/>
					<stop  offset="1" style="stop-color:#FFFFFF"/>
				</linearGradient>
				<polygon class="st30" points="612,55.2 612.7,51 609.8,50.5 609.1,54.7 				"/>
			</g>
		</g>
	</g>
	<g>
		<g>
			<g>
				<defs>
					<path id="SVGID_66_" d="M738.7,50.9l-2.3,3.8c0.9,0.1,1.5-0.7,2.2-0.8L738.7,50.9z"/>
				</defs>
				<clipPath id="SVGID_67_">
					<use xlink:href="#SVGID_66_"  style="overflow:visible;"/>
				</clipPath>
				
					<linearGradient id="SVGID_68_" gradientUnits="userSpaceOnUse" x1="640.902" y1="562.3493" x2="641.5623" y2="562.3493" gradientTransform="matrix(-0.6736 -4.0736 2.8056 -0.4639 -408.1499 2925.8062)">
					<stop  offset="0" style="stop-color:#A7A8AA"/>
					<stop  offset="0.65" style="stop-color:#D3D4D6"/>
					<stop  offset="1" style="stop-color:#FFFFFF"/>
				</linearGradient>
				<polygon class="st31" points="739.4,54.7 738.7,50.5 735.9,51 736.6,55.2 				"/>
			</g>
		</g>
	</g>
</g>
</svg>
