<?xml version="1.0" encoding="utf-8"?>
<!-- Generator: Adobe Illustrator 21.1.0, SVG Export Plug-In . SVG Version: 6.00 Build 0)  -->
<svg version="1.1" id="Layer_1" xmlns="http://www.w3.org/2000/svg" xmlns:xlink="http://www.w3.org/1999/xlink" x="0px" y="0px"
	 viewBox="0 0 77.7 97.2" style="enable-background:new 0 0 77.7 97.2;" xml:space="preserve">
<style type="text/css">
	.st0{fill:#FFFFFF;}
</style>
<title>kandidat_logo</title>
<path class="st0" d="M36.3,45.7C36.1,45.5,36,45.3,36,45c0-0.3,0.1-0.5,0.3-0.7l1.4-1.4c0.3-0.4,0.9-0.4,1.3-0.1
	c0,0,0.1,0.1,0.1,0.1l0.1,0.1l5.3,5.7c0.2,0.2,0.5,0.2,0.7,0c0,0,0,0,0,0l13-13.5h0.1c0.3-0.4,0.9-0.4,1.3-0.1c0,0,0.1,0.1,0.1,0.1
	l1.4,1.4c0.4,0.3,0.4,0.9,0.1,1.3c0,0-0.1,0.1-0.1,0.1l0,0L45.4,54.1c-0.2,0.2-0.4,0.3-0.7,0.3c-0.3,0-0.5-0.1-0.7-0.3L36.5,46
	L36.3,45.7z"/>
<path class="st0" d="M24.8,45.8c2.4,0,4.3-2.3,4.3-5.2c0-2.9-0.6-5.2-4.3-5.2s-4.3,2.3-4.3,5.2C20.5,43.4,22.5,45.8,24.8,45.8z"/>
<path class="st0" d="M32.9,53.5c-0.1-5-0.7-6.5-5.7-7.4c-0.6,0.6-1.5,1-2.3,0.9c-0.9,0.1-1.7-0.3-2.3-0.9c-4.9,0.9-5.6,2.3-5.7,7.2
	c0,0.4,0,0.4,0,0.4c0,0,0,0.3,0,0.5c0,0,1.2,2.4,8.1,2.4s8.1-2.4,8.1-2.4c0-0.2,0-0.3,0-0.4C32.9,53.8,32.9,53.7,32.9,53.5z"/>
<path class="st0" d="M70,24.4v40.5H36.3l-12.4,9.9l-5-9.9H7.7V24.4L70,24.4 M73.8,20.6H3.9v48.1h12.7l3.9,7.8l2.1,4.2l3.7-2.9
	l11.4-9.1h36.2L73.8,20.6L73.8,20.6z"/>
</svg>
