<?xml version="1.0" encoding="utf-8"?>
<!-- Generator: Adobe Illustrator 21.1.0, SVG Export Plug-In . SVG Version: 6.00 Build 0)  -->
<svg version="1.1" id="Ebene_1" xmlns="http://www.w3.org/2000/svg" xmlns:xlink="http://www.w3.org/1999/xlink" x="0px" y="0px"
	 viewBox="0 0 206.9 68.8" style="enable-background:new 0 0 206.9 68.8;" xml:space="preserve">
<style type="text/css">
	.st0{fill:#FFFFFF;}
</style>
<g>
	<path class="st0" d="M43.9,49.1v-6.8h0.7v6.1h3.5V49h-4.2V49.1z"/>
	<path class="st0" d="M51.8,49.1v-0.4c-0.4,0.4-0.7,0.5-1.4,0.5c-0.6,0-1-0.1-1.3-0.4c-0.2-0.2-0.4-0.6-0.4-1c0-0.8,0.6-1.3,1.6-1.3
		h1.4V46c0-0.7-0.3-1-1.2-1c-0.6,0-0.9,0.1-1.2,0.5L49,45c0.4-0.5,0.9-0.7,1.7-0.7c1.3,0,1.9,0.5,1.9,1.6v3.2H51.8z M51.8,46.9h-1.3
		c-0.7,0-1,0.3-1,0.8s0.3,0.8,1.1,0.8c0.4,0,0.8,0,1-0.3c0.2-0.2,0.2-0.4,0.2-0.8V46.9z"/>
	<path class="st0" d="M57.2,49.1v-2.9c0-0.8-0.4-1.2-1.2-1.2s-1.2,0.4-1.2,1.2v2.9h-0.7v-4.7h0.7v0.5c0.3-0.4,0.8-0.6,1.3-0.6
		s0.9,0.2,1.2,0.4c0.3,0.3,0.5,0.8,0.5,1.3v3L57.2,49.1L57.2,49.1z"/>
	<path class="st0" d="M62.3,49.1v-0.6c-0.4,0.5-0.8,0.6-1.3,0.6s-0.9-0.2-1.1-0.4c-0.5-0.5-0.6-1.3-0.6-2s0.1-1.5,0.6-2
		c0.2-0.2,0.7-0.4,1.1-0.4c0.5,0,0.9,0.1,1.3,0.6v-2.6H63v6.8C63,49.1,62.3,49.1,62.3,49.1z M61.1,45c-1,0-1.2,0.9-1.2,1.8
		c0,0.9,0.2,1.8,1.2,1.8s1.2-0.9,1.2-1.8C62.3,45.8,62.2,45,61.1,45z"/>
	<path class="st0" d="M65.1,46.9c0,1,0.5,1.6,1.4,1.6c0.5,0,0.9-0.2,1.2-0.5l0.5,0.4c-0.5,0.5-0.9,0.7-1.7,0.7c-1.2,0-2-0.7-2-2.4
		c0-1.5,0.7-2.4,1.9-2.4c1.2,0,1.9,0.9,1.9,2.3v0.3C68.3,46.9,65.1,46.9,65.1,46.9z M67.5,45.6c-0.2-0.4-0.6-0.7-1.1-0.7
		s-0.9,0.3-1.1,0.7c-0.1,0.3-0.1,0.4-0.1,0.8h2.5C67.6,46,67.6,45.9,67.5,45.6z"/>
	<path class="st0" d="M71.2,49.1c-0.8,0-1.4-0.2-1.9-0.7l0.5-0.5c0.4,0.4,0.9,0.5,1.5,0.5c0.8,0,1.2-0.3,1.2-0.8
		c0-0.4-0.2-0.6-0.8-0.7L70.9,47c-0.9-0.1-1.4-0.5-1.4-1.3c0-0.9,0.7-1.4,1.7-1.4c0.7,0,1.3,0.2,1.7,0.5l-0.4,0.4
		c-0.3-0.3-0.8-0.4-1.2-0.4c-0.7,0-1,0.3-1,0.8c0,0.4,0.2,0.6,0.8,0.7l0.8,0.1c0.8,0.1,1.4,0.4,1.4,1.3
		C73.1,48.6,72.3,49.1,71.2,49.1z"/>
	<path class="st0" d="M74.1,49.1v-0.6l2.6-3.5h-2.5v-0.6h3.3V45l-2.6,3.5h2.6v0.6H74.1z"/>
	<path class="st0" d="M79.2,46.9c0,1,0.5,1.6,1.4,1.6c0.5,0,0.9-0.2,1.2-0.5l0.5,0.4c-0.5,0.5-0.9,0.7-1.7,0.7c-1.2,0-2-0.7-2-2.4
		c0-1.5,0.7-2.4,1.9-2.4c1.2,0,1.9,0.9,1.9,2.3v0.3C82.4,46.9,79.2,46.9,79.2,46.9z M81.6,45.6c-0.2-0.4-0.6-0.7-1.1-0.7
		s-0.9,0.3-1.1,0.7c-0.1,0.3-0.1,0.4-0.1,0.8h2.5C81.7,46,81.7,45.9,81.6,45.6z"/>
	<path class="st0" d="M86.8,49.1v-2.9c0-0.8-0.4-1.2-1.2-1.2s-1.2,0.4-1.2,1.2v2.9h-0.7v-4.7h0.7v0.5c0.3-0.4,0.8-0.6,1.3-0.6
		s0.9,0.2,1.2,0.4c0.3,0.3,0.5,0.8,0.5,1.3v3L86.8,49.1L86.8,49.1z"/>
	<path class="st0" d="M90.5,49.1c-0.8,0-1.2-0.6-1.2-1.3V45h-0.6v-0.5h0.6V43H90v1.5h1V45h-1v2.9c0,0.4,0.2,0.7,0.6,0.7H91v0.6h-0.5
		V49.1z"/>
	<path class="st0" d="M95,45.3C94.7,45,94.5,45,94.1,45c-0.7,0-1.1,0.5-1.1,1.3v2.9h-0.7v-4.7H93V45c0.3-0.4,0.8-0.6,1.3-0.6
		c0.4,0,0.8,0.1,1.1,0.4L95,45.3z"/>
	<path class="st0" d="M98.9,49.1v-0.4c-0.4,0.4-0.7,0.5-1.4,0.5c-0.6,0-1-0.1-1.3-0.4c-0.2-0.2-0.4-0.6-0.4-1c0-0.8,0.6-1.3,1.6-1.3
		h1.4V46c0-0.7-0.3-1-1.2-1c-0.6,0-0.9,0.1-1.2,0.5L96.1,45c0.4-0.5,0.9-0.7,1.7-0.7c1.3,0,1.9,0.5,1.9,1.6v3.2H98.9z M98.9,46.9
		h-1.3c-0.7,0-1,0.3-1,0.8s0.3,0.8,1.1,0.8c0.4,0,0.8,0,1-0.3c0.2-0.2,0.2-0.4,0.2-0.8C98.9,47.4,98.9,46.9,98.9,46.9z"/>
	<path class="st0" d="M102.4,49.1c-0.8,0-1.2-0.5-1.2-1.2v-5.5h0.7v5.5c0,0.5,0.2,0.7,0.6,0.7h0.4v0.6L102.4,49.1L102.4,49.1z"/>
	<path class="st0" d="M104.3,46.9c0,1,0.5,1.6,1.4,1.6c0.5,0,0.9-0.2,1.2-0.5l0.5,0.4c-0.5,0.5-0.9,0.7-1.7,0.7c-1.2,0-2-0.7-2-2.4
		c0-1.5,0.7-2.4,1.9-2.4c1.2,0,1.9,0.9,1.9,2.3v0.3C107.5,46.9,104.3,46.9,104.3,46.9z M106.6,45.6c-0.2-0.4-0.6-0.7-1.1-0.7
		s-0.9,0.3-1.1,0.7c-0.1,0.3-0.1,0.4-0.1,0.8h2.5C106.7,46,106.7,45.9,106.6,45.6z"/>
	<path class="st0" d="M112.1,45v4.1h-0.7V45h-0.6v-0.5h0.6v-0.9c0-0.7,0.4-1.3,1.2-1.3h0.5v0.6h-0.4c-0.4,0-0.6,0.3-0.6,0.7v0.9h1
		V45H112.1z"/>
	<path class="st0" d="M117.2,49.1v-0.5c-0.3,0.4-0.8,0.6-1.3,0.6s-0.9-0.2-1.2-0.4c-0.3-0.3-0.5-0.8-0.5-1.3v-3h0.7v2.9
		c0,0.8,0.4,1.2,1.1,1.2s1.2-0.4,1.2-1.2v-2.9h0.7v4.7L117.2,49.1L117.2,49.1z M114.6,43.4v-0.8h0.7v0.8H114.6z M116.7,43.4v-0.8
		h0.7v0.8H116.7z"/>
	<path class="st0" d="M122.2,45.3c-0.3-0.3-0.4-0.3-0.8-0.3c-0.7,0-1.1,0.5-1.1,1.3v2.9h-0.7v-4.7h0.7V45c0.3-0.4,0.8-0.6,1.3-0.6
		c0.4,0,0.8,0.1,1.1,0.4L122.2,45.3z"/>
	<path class="st0" d="M129.1,48.7c-0.2,0.2-0.7,0.4-1.1,0.4c-0.5,0-0.9-0.1-1.3-0.6v2.6H126v-6.8h0.7V45c0.4-0.5,0.8-0.6,1.3-0.6
		s0.9,0.2,1.1,0.4c0.5,0.5,0.6,1.3,0.6,2C129.6,47.5,129.5,48.3,129.1,48.7z M127.8,45c-1,0-1.2,0.9-1.2,1.8c0,0.9,0.2,1.8,1.2,1.8
		s1.2-0.9,1.2-1.8C129,45.8,128.8,45,127.8,45z"/>
	<path class="st0" d="M134.1,48.6c-0.3,0.3-0.8,0.5-1.3,0.5s-1-0.2-1.3-0.5c-0.5-0.5-0.6-1.1-0.6-1.9c0-0.7,0.1-1.4,0.6-1.9
		c0.3-0.3,0.8-0.5,1.3-0.5s1,0.2,1.3,0.5c0.5,0.5,0.6,1.1,0.6,1.9C134.7,47.5,134.6,48.1,134.1,48.6z M133.6,45.3
		c-0.2-0.2-0.5-0.3-0.9-0.3c-0.3,0-0.6,0.1-0.8,0.3c-0.3,0.3-0.4,0.9-0.4,1.4s0,1.1,0.4,1.4c0.2,0.2,0.5,0.3,0.8,0.3
		s0.6-0.1,0.9-0.3c0.3-0.3,0.4-0.9,0.4-1.4S134,45.6,133.6,45.3z"/>
	<path class="st0" d="M137.3,49.1c-0.8,0-1.2-0.5-1.2-1.2v-5.5h0.7v5.5c0,0.5,0.2,0.7,0.6,0.7h0.4v0.6L137.3,49.1L137.3,49.1z"/>
	<path class="st0" d="M138.9,43.1v-0.8h0.8v0.8H138.9z M139,49.1v-4.7h0.7v4.7H139z"/>
	<path class="st0" d="M142.7,49.1c-0.8,0-1.2-0.6-1.2-1.3V45h-0.6v-0.5h0.6V43h0.7v1.5h1V45h-1v2.9c0,0.4,0.2,0.7,0.6,0.7h0.4v0.6
		h-0.5V49.1z"/>
	<path class="st0" d="M144.5,43.1v-0.8h0.8v0.8H144.5z M144.5,49.1v-4.7h0.7v4.7H144.5z"/>
	<path class="st0" d="M148.4,49.1c-0.8,0-1.4-0.2-1.9-0.7l0.5-0.5c0.4,0.4,0.9,0.5,1.5,0.5c0.8,0,1.2-0.3,1.2-0.8
		c0-0.4-0.2-0.6-0.8-0.7l-0.8-0.1c-0.9-0.1-1.4-0.5-1.4-1.3c0-0.9,0.7-1.4,1.7-1.4c0.7,0,1.3,0.2,1.7,0.5l-0.4,0.4
		c-0.3-0.3-0.8-0.4-1.2-0.4c-0.7,0-1,0.3-1,0.8c0,0.4,0.2,0.6,0.8,0.7l0.8,0.1c0.8,0.1,1.4,0.4,1.4,1.3
		C150.3,48.6,149.5,49.1,148.4,49.1z"/>
	<path class="st0" d="M153.4,49.1c-1.2,0-2.1-0.8-2.1-2.4c0-1.6,0.9-2.4,2.1-2.4c0.6,0,1.1,0.2,1.5,0.7l-0.5,0.4
		c-0.4-0.4-0.6-0.5-1.1-0.5s-0.8,0.2-1.1,0.5c-0.2,0.3-0.3,0.7-0.3,1.3s0.1,1,0.3,1.3c0.2,0.4,0.6,0.5,1.1,0.5
		c0.4,0,0.7-0.1,1.1-0.5l0.5,0.4C154.5,49,154.1,49.1,153.4,49.1z"/>
	<path class="st0" d="M159.3,49.1v-2.9c0-0.8-0.4-1.2-1.1-1.2c-0.7,0-1.2,0.4-1.2,1.2v2.9h-0.7v-6.8h0.7v2.6
		c0.3-0.4,0.8-0.6,1.3-0.6c1.1,0,1.7,0.7,1.7,1.7v3L159.3,49.1L159.3,49.1z"/>
	<path class="st0" d="M162,46.9c0,1,0.5,1.6,1.4,1.6c0.5,0,0.9-0.2,1.2-0.5l0.5,0.4c-0.5,0.5-0.9,0.7-1.7,0.7c-1.2,0-2-0.7-2-2.4
		c0-1.5,0.7-2.4,1.9-2.4s1.9,0.9,1.9,2.3v0.3C165.2,46.9,162,46.9,162,46.9z M164.4,45.6c-0.2-0.4-0.6-0.7-1.1-0.7s-0.9,0.3-1.1,0.7
		c-0.1,0.3-0.1,0.4-0.1,0.8h2.5C164.5,46,164.5,45.9,164.4,45.6z"/>
	<path class="st0" d="M171.8,49.1h-2.6v-6.8h2.5c1.2,0,2,0.7,2,1.8c0,0.7-0.4,1.3-1,1.5c0.6,0.2,1.1,0.8,1.1,1.6
		C173.8,48.4,173,49.1,171.8,49.1z M171.6,43h-1.8v2.3h1.8c0.8,0,1.3-0.4,1.3-1.2C173,43.3,172.4,43,171.6,43z M171.7,46h-1.8v2.5
		h1.8c0.8,0,1.4-0.5,1.4-1.2S172.5,46,171.7,46z"/>
	<path class="st0" d="M175.3,43.1v-0.8h0.8v0.8H175.3z M175.4,49.1v-4.7h0.7v4.7H175.4z"/>
	<path class="st0" d="M178.9,49.1c-0.8,0-1.2-0.5-1.2-1.2v-5.5h0.7v5.5c0,0.5,0.2,0.7,0.6,0.7h0.4v0.6L178.9,49.1L178.9,49.1z"/>
	<path class="st0" d="M183.4,49.1v-0.6c-0.4,0.5-0.8,0.6-1.3,0.6s-0.9-0.2-1.1-0.4c-0.5-0.5-0.6-1.3-0.6-2s0.1-1.5,0.6-2
		c0.2-0.2,0.7-0.4,1.1-0.4c0.5,0,0.9,0.1,1.3,0.6v-2.6h0.7v6.8C184.1,49.1,183.4,49.1,183.4,49.1z M182.2,45c-1,0-1.2,0.9-1.2,1.8
		c0,0.9,0.2,1.8,1.2,1.8s1.2-0.9,1.2-1.8C183.4,45.8,183.2,45,182.2,45z"/>
	<path class="st0" d="M188.7,49.1v-0.5c-0.3,0.4-0.8,0.6-1.3,0.6s-0.9-0.2-1.2-0.4c-0.3-0.3-0.5-0.8-0.5-1.3v-3h0.7v2.9
		c0,0.8,0.4,1.2,1.1,1.2s1.2-0.4,1.2-1.2v-2.9h0.7v4.7L188.7,49.1L188.7,49.1z"/>
	<path class="st0" d="M194.1,49.1v-2.9c0-0.8-0.4-1.2-1.2-1.2s-1.2,0.4-1.2,1.2v2.9H191v-4.7h0.7v0.5c0.3-0.4,0.8-0.6,1.3-0.6
		s0.9,0.2,1.2,0.4c0.3,0.3,0.5,0.8,0.5,1.3v3L194.1,49.1L194.1,49.1z"/>
	<path class="st0" d="M197.9,51.2c-0.7,0-1.1-0.2-1.6-0.6l0.4-0.4c0.3,0.3,0.6,0.5,1.1,0.5c0.9,0,1.3-0.6,1.3-1.4v-0.7
		c-0.4,0.5-0.8,0.6-1.3,0.6s-0.9-0.2-1.1-0.4c-0.5-0.5-0.6-1.2-0.6-1.9c0-0.8,0.1-1.5,0.6-1.9c0.2-0.2,0.7-0.4,1.1-0.4
		c0.5,0,0.9,0.1,1.3,0.6v-0.6h0.7v4.8C199.9,50.4,199.2,51.2,197.9,51.2z M198.1,45c-1,0-1.2,0.9-1.2,1.7c0,0.9,0.2,1.8,1.2,1.8
		s1.2-0.9,1.2-1.8C199.2,45.8,199.1,45,198.1,45z"/>
	<path class="st0" d="M46.5,60.6h-2.6v-6.8h2.5c1.2,0,2,0.7,2,1.8c0,0.7-0.4,1.3-1,1.5c0.6,0.2,1.1,0.8,1.1,1.6
		C48.5,59.9,47.7,60.6,46.5,60.6z M46.4,54.5h-1.8v2.3h1.8c0.8,0,1.3-0.4,1.3-1.2S47.1,54.5,46.4,54.5z M46.4,57.5h-1.8V60h1.8
		c0.8,0,1.4-0.5,1.4-1.2S47.3,57.5,46.4,57.5z"/>
	<path class="st0" d="M52.7,60.6v-0.4c-0.4,0.4-0.7,0.5-1.4,0.5c-0.6,0-1-0.1-1.3-0.4c-0.2-0.2-0.4-0.6-0.4-1c0-0.8,0.6-1.3,1.6-1.3
		h1.4v-0.4c0-0.7-0.3-1-1.2-1c-0.6,0-0.9,0.1-1.2,0.5l-0.5-0.4c0.4-0.5,0.9-0.7,1.7-0.7c1.3,0,1.9,0.5,1.9,1.6v3.2h-0.6V60.6z
		 M52.7,58.4h-1.3c-0.7,0-1,0.3-1,0.8s0.3,0.8,1.1,0.8c0.4,0,0.8,0,1-0.3c0.2-0.2,0.2-0.4,0.2-0.8V58.4z"/>
	<path class="st0" d="M57.9,60.6V60c-0.4,0.5-0.8,0.6-1.3,0.6s-0.9-0.2-1.1-0.4c-0.5-0.5-0.6-1.3-0.6-2s0.1-1.5,0.6-2
		c0.2-0.2,0.7-0.4,1.1-0.4c0.5,0,0.9,0.1,1.3,0.6v-2.6h0.7v6.8C58.6,60.6,57.9,60.6,57.9,60.6z M56.7,56.5c-1,0-1.2,0.9-1.2,1.8
		c0,0.9,0.2,1.8,1.2,1.8s1.2-0.9,1.2-1.8C57.9,57.3,57.7,56.5,56.7,56.5z"/>
	<path class="st0" d="M60.7,58.4c0,1,0.5,1.6,1.4,1.6c0.5,0,0.9-0.2,1.2-0.5l0.5,0.4c-0.5,0.5-0.9,0.7-1.7,0.7c-1.2,0-2-0.7-2-2.4
		c0-1.5,0.7-2.4,1.9-2.4s1.9,0.9,1.9,2.3v0.3C63.9,58.4,60.7,58.4,60.7,58.4z M63,57.1c-0.2-0.4-0.6-0.7-1.1-0.7s-0.9,0.3-1.1,0.7
		c-0.1,0.3-0.1,0.4-0.1,0.8h2.5C63.1,57.5,63.1,57.4,63,57.1z"/>
	<path class="st0" d="M68.3,60.6v-2.9c0-0.8-0.4-1.2-1.2-1.2S66,56.9,66,57.7v2.9h-0.7v-4.7H66v0.5c0.3-0.4,0.8-0.6,1.3-0.6
		s0.9,0.2,1.2,0.4c0.3,0.3,0.5,0.8,0.5,1.3v3L68.3,60.6L68.3,60.6z"/>
	<path class="st0" d="M70.5,58.3v-0.6h2.6v0.6H70.5z"/>
	<path class="st0" d="M80.1,60.6h-0.7l-1.5-5.4l-1.5,5.4h-0.7L74,53.8h0.8l1.3,5.5l1.5-5.5h0.6l1.5,5.5l1.3-5.5h0.8L80.1,60.6z"/>
	<path class="st0" d="M85.8,60.6v-0.5c-0.3,0.4-0.8,0.6-1.3,0.6s-0.9-0.2-1.2-0.4C83,60,82.8,59.5,82.8,59v-3h0.7v2.9
		c0,0.8,0.4,1.2,1.1,1.2s1.2-0.4,1.2-1.2V56h0.7v4.7L85.8,60.6L85.8,60.6z M83.2,54.9V54h0.7v0.8h-0.7V54.9z M85.3,54.9V54H86v0.8
		h-0.7V54.9z"/>
	<path class="st0" d="M90.8,56.8c-0.3-0.3-0.4-0.3-0.8-0.3c-0.7,0-1.1,0.5-1.1,1.3v2.9h-0.7V56h0.7v0.6c0.3-0.4,0.8-0.6,1.3-0.6
		c0.4,0,0.8,0.1,1.1,0.4L90.8,56.8z"/>
	<path class="st0" d="M93.5,60.6c-0.8,0-1.2-0.6-1.2-1.3v-2.9h-0.6v-0.5h0.6v-1.5H93v1.5h1v0.5h-1v2.9c0,0.4,0.2,0.7,0.6,0.7H94v0.6
		H93.5z"/>
	<path class="st0" d="M96.6,60.6c-0.8,0-1.2-0.6-1.2-1.3v-2.9h-0.6v-0.5h0.6v-1.5h0.7v1.5h1v0.5h-1v2.9c0,0.4,0.2,0.7,0.6,0.7h0.4
		v0.6H96.6z"/>
	<path class="st0" d="M98.8,58.4c0,1,0.5,1.6,1.4,1.6c0.5,0,0.9-0.2,1.2-0.5l0.5,0.4c-0.5,0.5-0.9,0.7-1.7,0.7c-1.2,0-2-0.7-2-2.4
		c0-1.5,0.7-2.4,1.9-2.4c1.2,0,1.9,0.9,1.9,2.3v0.3C102,58.4,98.8,58.4,98.8,58.4z M101.1,57.1c-0.2-0.4-0.6-0.7-1.1-0.7
		s-0.9,0.3-1.1,0.7c-0.1,0.3-0.1,0.4-0.1,0.8h2.5C101.3,57.5,101.2,57.4,101.1,57.1z"/>
	<path class="st0" d="M109.4,60.6v-2.9c0-0.8-0.4-1.2-1.1-1.2s-1.2,0.4-1.2,1.2v3h-0.7v-2.9c0-0.8-0.4-1.2-1.1-1.2s-1.2,0.4-1.2,1.2
		v2.9h-0.7V56h0.7v0.5c0.3-0.4,0.8-0.6,1.3-0.6c0.6,0,1.2,0.3,1.4,0.8c0.4-0.5,0.9-0.8,1.5-0.8c0.5,0,0.9,0.2,1.2,0.4
		c0.3,0.3,0.5,0.8,0.5,1.3v3H109.4z"/>
	<path class="st0" d="M114.9,60.2c-0.2,0.2-0.7,0.4-1.1,0.4c-0.5,0-0.9-0.1-1.3-0.6v0.6h-0.7v-6.8h0.7v2.6c0.4-0.5,0.8-0.6,1.3-0.6
		s0.9,0.2,1.1,0.4c0.5,0.5,0.6,1.3,0.6,2C115.5,59,115.4,59.8,114.9,60.2z M113.6,56.5c-1,0-1.2,0.9-1.2,1.8c0,0.9,0.2,1.8,1.2,1.8
		s1.2-0.9,1.2-1.8C114.8,57.3,114.6,56.5,113.6,56.5z"/>
	<path class="st0" d="M117.4,58.4c0,1,0.5,1.6,1.4,1.6c0.5,0,0.9-0.2,1.2-0.5l0.5,0.4c-0.5,0.5-0.9,0.7-1.7,0.7c-1.2,0-2-0.7-2-2.4
		c0-1.5,0.7-2.4,1.9-2.4c1.2,0,1.9,0.9,1.9,2.3v0.3C120.6,58.4,117.4,58.4,117.4,58.4z M119.7,57.1c-0.2-0.4-0.6-0.7-1.1-0.7
		s-0.9,0.3-1.1,0.7c-0.1,0.3-0.1,0.4-0.1,0.8h2.5C119.8,57.5,119.8,57.4,119.7,57.1z"/>
	<path class="st0" d="M124.6,56.8c-0.3-0.3-0.4-0.3-0.8-0.3c-0.7,0-1.1,0.5-1.1,1.3v2.9H122V56h0.7v0.6c0.3-0.4,0.8-0.6,1.3-0.6
		c0.4,0,0.8,0.1,1.1,0.4L124.6,56.8z"/>
	<path class="st0" d="M127.2,62.7c-0.7,0-1.1-0.2-1.6-0.6l0.4-0.4c0.3,0.3,0.6,0.5,1.1,0.5c0.9,0,1.3-0.6,1.3-1.4V60
		c-0.4,0.5-0.8,0.6-1.3,0.6s-0.9-0.2-1.1-0.4c-0.5-0.5-0.6-1.2-0.6-1.9c0-0.8,0.1-1.5,0.6-1.9c0.2-0.2,0.7-0.4,1.1-0.4
		c0.5,0,0.9,0.1,1.3,0.6V56h0.7v4.8C129.1,61.9,128.4,62.7,127.2,62.7z M127.3,56.5c-1,0-1.2,0.9-1.2,1.7c0,0.9,0.2,1.8,1.2,1.8
		s1.2-0.9,1.2-1.8C128.4,57.3,128.3,56.5,127.3,56.5z"/>
</g>
<g>
	<path class="st0" d="M37,33.7c-1.2,1.2-3,1.9-5.1,1.9c-2.3,0-4-0.6-5.5-2.4v9.3h-4.3V14.2h4.2v2.3c1.6-1.9,3.3-2.5,5.6-2.5
		c2.1,0,4,0.7,5.2,1.9c2.1,2.1,2.4,5.7,2.4,8.9S39.1,31.6,37,33.7z M30.7,17.7c-3.8,0-4.4,3.3-4.4,7s0.6,7,4.4,7s4.4-3.3,4.4-7
		S34.6,17.7,30.7,17.7z"/>
</g>
<path class="st0" d="M15,35.3c-4,0-5.8-2.7-5.8-5.8V5.6h4.2v23.6c0,1.6,0.6,2.5,2.3,2.5h1.9v3.6H15z"/>
<path class="st0" d="M58.8,33.7c-1.2,1.2-3,1.9-5.2,1.9c-2.3,0-4-0.6-5.6-2.5v2.2h-4.2V5.6H48v10.7c1.5-1.8,3.3-2.4,5.5-2.4
	c2.1,0,4,0.7,5.1,1.9c2.1,2.1,2.4,5.7,2.4,8.9S60.9,31.6,58.8,33.7z M52.5,17.7c-3.8,0-4.4,3.2-4.4,7c0,3.7,0.6,7,4.4,7
	s4.4-3.3,4.4-7S56.4,17.7,52.5,17.7z"/>
</svg>
